<svg width="214" height="214" viewBox="0 0 214 214" fill="none" xmlns="http://www.w3.org/2000/svg">
<g filter="url(#filter0_f_24_695)">
<circle cx="107" cy="107" r="27" fill="#FD35EF" fill-opacity="0.8"/>
</g>
<path d="M124.915 80H92.8131C90.1547 80 88 82.1547 88 84.8131V126.527C88 129.185 90.1547 131.34 92.8131 131.34H124.915C127.574 131.34 129.728 129.185 129.728 126.527V84.8131C129.728 82.1547 127.574 80 124.915 80ZM126.519 126.527C126.519 127.412 125.801 128.131 124.915 128.131H92.8131C91.9275 128.131 91.2087 127.412 91.2087 126.527V84.8131C91.2087 83.9275 91.9275 83.2088 92.8131 83.2088H124.915C125.801 83.2088 126.519 83.9275 126.519 84.8131V126.527ZM108.867 120.119C107.098 120.119 105.666 121.552 105.666 123.318C105.666 125.085 107.098 126.519 108.867 126.519C110.635 126.519 112.067 125.085 112.067 123.318C112.067 121.552 110.635 120.119 108.867 120.119ZM112.075 84.8131H105.658C104.772 84.8131 104.053 85.5319 104.053 86.4175C104.053 87.3031 104.772 88.0219 105.658 88.0219H112.075C112.961 88.0219 113.68 87.3031 113.68 86.4175C113.68 85.5319 112.961 84.8131 112.075 84.8131Z" fill="#FD35EF"/>
<defs>
<filter id="filter0_f_24_695" x="0" y="0" width="214" height="214" filterUnits="userSpaceOnUse" color-interpolation-filters="sRGB">
<feFlood flood-opacity="0" result="BackgroundImageFix"/>
<feBlend mode="normal" in="SourceGraphic" in2="BackgroundImageFix" result="shape"/>
<feGaussianBlur stdDeviation="40" result="effect1_foregroundBlur_24_695"/>
</filter>
</defs>
</svg>
