<svg width="214" height="214" viewBox="0 0 214 214" fill="none" xmlns="http://www.w3.org/2000/svg">
<g filter="url(#filter0_f_24_662)">
<circle cx="107" cy="107" r="27" fill="#2F71FF" fill-opacity="0.8"/>
</g>
<path d="M128.752 121.691V98.8601C128.752 97.5049 127.65 96.4023 126.295 96.4023C124.939 96.4023 123.837 97.5049 123.837 98.8601V122.128C122.956 122.67 122.252 123.443 121.793 124.366H109.527V116.338C109.527 114.982 108.424 113.88 107.069 113.88C105.714 113.88 104.611 114.982 104.611 116.338V124.366H92.4551C91.9015 123.251 90.9921 122.362 89.865 121.833V109.62H96.1459C97.5011 109.62 98.6037 108.517 98.6037 107.162C98.6037 105.807 97.5011 104.704 96.1459 104.704H89.865V93.2558C90.9505 92.7452 91.8393 91.8942 92.3981 90.8314H113.623C114.979 90.8314 116.081 89.7288 116.081 88.3736C116.081 87.0184 114.979 85.9158 113.623 85.9158H92.507C91.6057 83.9993 89.669 82.748 87.5164 82.748C84.4747 82.748 82 85.2226 82 88.2644C82 90.3399 83.1409 92.1995 84.9493 93.1465V121.942C83.141 122.889 82 124.749 82 126.824C82.0001 129.866 84.4747 132.34 87.5165 132.34C89.6138 132.34 91.5305 131.132 92.4544 129.282H121.794C122.717 131.132 124.634 132.34 126.731 132.34C129.773 132.34 132.248 129.866 132.248 126.824C132.248 124.538 130.839 122.511 128.752 121.691ZM92.9866 87.5544H113.623C114.075 87.5544 114.443 87.9219 114.443 88.3736C114.443 88.8253 114.075 89.1928 113.623 89.1928H92.9529C93.005 88.8875 93.0327 88.5777 93.0327 88.2643C93.0327 88.0261 93.0171 87.7892 92.9866 87.5544ZM96.1459 106.343C96.5977 106.343 96.9651 106.71 96.9651 107.162C96.9651 107.614 96.5976 107.981 96.1459 107.981H89.0457C88.5932 107.981 88.2265 108.348 88.2265 108.8V121.354C87.9916 121.323 87.7547 121.308 87.5165 121.308C87.2032 121.308 86.8933 121.335 86.5879 121.387V93.7008C86.8933 93.753 87.2031 93.7806 87.5165 93.7806C87.7547 93.7806 87.9916 93.7649 88.2265 93.7344V105.523C88.2265 105.976 88.5932 106.343 89.0457 106.343H96.1459V106.343ZM83.6386 88.2644C83.6386 86.1262 85.3781 84.3866 87.5164 84.3866C89.1708 84.3866 90.6442 85.4376 91.1828 87.0018C91.323 87.4092 91.3941 87.834 91.3941 88.2644C91.3941 88.7612 91.3005 89.2465 91.1157 89.7071V89.7073C90.6955 90.7537 89.8439 91.5642 88.7789 91.9308C88.3715 92.0711 87.9466 92.1422 87.5163 92.1422C87.0195 92.1422 86.5342 92.0485 86.0735 91.8637C86.0733 91.8636 86.0732 91.8636 86.073 91.8635C84.5942 91.2696 83.6386 89.8571 83.6386 88.2644ZM91.1515 128.177C91.1515 128.177 91.1514 128.177 91.1514 128.177C90.5889 129.687 89.1282 130.702 87.5164 130.702C85.3781 130.702 83.6386 128.962 83.6386 126.824C83.6386 125.231 84.5942 123.819 86.0731 123.225C86.0733 123.225 86.0735 123.225 86.0736 123.225C86.5343 123.04 87.0196 122.946 87.5164 122.946C87.9467 122.946 88.3716 123.017 88.779 123.158C89.8804 123.537 90.7451 124.38 91.1515 125.471C91.3126 125.904 91.3943 126.359 91.3943 126.824C91.3943 127.289 91.3126 127.744 91.1515 128.177ZM121.277 127.643H92.9709C93.0112 127.373 93.0328 127.1 93.0328 126.824C93.0328 126.548 93.0112 126.275 92.9709 126.005H105.431C105.883 126.005 106.25 125.638 106.25 125.186V116.338C106.25 115.886 106.618 115.518 107.069 115.518C107.521 115.518 107.889 115.886 107.889 116.338V125.186C107.889 125.638 108.255 126.005 108.708 126.005H121.277C121.237 126.275 121.215 126.548 121.215 126.824C121.215 127.1 121.237 127.373 121.277 127.643ZM125.475 98.8601C125.475 98.4083 125.843 98.0409 126.295 98.0409C126.746 98.0409 127.114 98.4084 127.114 98.8601V121.322C126.987 121.313 126.859 121.308 126.731 121.308C126.303 121.308 125.884 121.356 125.475 121.451L125.475 98.8601ZM126.731 130.702C125.12 130.702 123.659 129.687 123.097 128.177C123.097 128.177 123.096 128.177 123.096 128.177C122.935 127.744 122.854 127.289 122.854 126.824C122.854 126.359 122.935 125.904 123.096 125.471C123.443 124.541 124.126 123.786 125.019 123.345C125.554 123.08 126.131 122.946 126.731 122.946C127.066 122.946 127.4 122.99 127.724 123.075C129.423 123.523 130.609 125.065 130.609 126.824C130.609 128.962 128.87 130.702 126.731 130.702Z" fill="#2F71FF"/>
<path d="M132.118 85.5654L127.793 81.2399C127.639 81.0863 127.431 81 127.213 81C126.996 81 126.788 81.0864 126.634 81.2401L106.946 100.938L102.615 105.269C102.611 105.273 102.607 105.278 102.603 105.282C102.59 105.295 102.578 105.309 102.566 105.323C102.562 105.328 102.558 105.332 102.554 105.337C102.551 105.341 102.548 105.346 102.545 105.35C102.536 105.361 102.527 105.373 102.519 105.386C102.513 105.394 102.507 105.403 102.502 105.411C102.499 105.416 102.496 105.42 102.493 105.425C102.488 105.434 102.483 105.443 102.478 105.452C102.471 105.465 102.464 105.478 102.458 105.49C102.455 105.495 102.453 105.5 102.45 105.505C102.448 105.511 102.445 105.517 102.443 105.523C102.436 105.539 102.43 105.555 102.424 105.572C102.422 105.578 102.419 105.583 102.417 105.589L101.335 108.834L100.32 111.879L99.1072 113.092C98.7872 113.412 98.7872 113.931 99.1072 114.251C99.2672 114.411 99.4769 114.491 99.6865 114.491C99.8961 114.491 100.106 114.411 100.266 114.251L101.459 113.058L107.779 110.951C107.785 110.949 107.791 110.946 107.797 110.944C107.813 110.938 107.829 110.932 107.844 110.926C107.851 110.923 107.857 110.92 107.863 110.918C107.868 110.915 107.873 110.912 107.878 110.91C107.891 110.904 107.903 110.897 107.915 110.891C107.925 110.885 107.934 110.88 107.943 110.875C107.948 110.872 107.952 110.869 107.957 110.866C107.966 110.861 107.974 110.855 107.982 110.849C107.995 110.841 108.006 110.832 108.018 110.823C108.022 110.82 108.027 110.817 108.031 110.814C108.036 110.81 108.041 110.805 108.046 110.801C108.059 110.79 108.072 110.778 108.084 110.767C108.089 110.762 108.094 110.758 108.099 110.753L118.912 99.9397C118.927 99.925 118.941 99.9101 118.954 99.8946L132.118 86.7237C132.438 86.4038 132.438 85.8851 132.118 85.5654ZM102.327 111.041L102.89 109.352L103.552 107.365L106.003 109.816L102.327 111.041ZM117.752 98.7797C117.738 98.7942 117.724 98.8091 117.711 98.8244L107.52 109.015L104.353 105.849L108.104 102.097L127.214 82.978L130.38 86.1447L117.752 98.7797Z" fill="#2F71FF"/>
<defs>
<filter id="filter0_f_24_662" x="0" y="0" width="214" height="214" filterUnits="userSpaceOnUse" color-interpolation-filters="sRGB">
<feFlood flood-opacity="0" result="BackgroundImageFix"/>
<feBlend mode="normal" in="SourceGraphic" in2="BackgroundImageFix" result="shape"/>
<feGaussianBlur stdDeviation="40" result="effect1_foregroundBlur_24_662"/>
</filter>
</defs>
</svg>
