<svg width="95" height="55" viewBox="0 0 95 55" fill="none" xmlns="http://www.w3.org/2000/svg">
<path d="M75.5484 10.9429C75.533 11.0896 75.4867 11.2286 75.4172 11.3675C75.34 11.6918 75.3014 12.0623 75.3014 12.4715C75.3014 12.5101 75.3091 12.5487 75.3091 12.5873V39.4066C75.6488 40.2481 76.0657 40.8811 76.5675 41.2748C77.0307 41.6454 77.602 41.823 78.2968 41.7921C78.3431 41.7844 78.3971 41.7844 78.4435 41.7844H86.1326C86.148 41.7844 86.1712 41.7844 86.1943 41.7844C87.3909 41.8461 88.2556 41.5219 88.8346 40.858C89.4908 40.1014 89.8691 38.8894 90.0003 37.2604V37.2373L92.3395 13.0428C92.3395 13.0042 92.3395 12.9656 92.3472 12.927C92.5093 11.5528 92.2082 10.6573 91.5289 10.1323C90.7491 9.53016 89.4599 9.28312 87.7847 9.28312C87.7461 9.28312 87.7075 9.29084 87.6689 9.29084H79.007V9.28312C77.6869 9.28312 76.7142 9.5456 76.1197 10.086C75.8727 10.3099 75.6874 10.5955 75.5484 10.9429ZM67.0719 40.6109C66.8866 40.4334 66.7554 40.2018 66.7013 39.947L54.3493 17.7134C52.9751 15.4205 51.7399 15.3665 50.5433 16.0767C49.6941 16.5785 48.7986 17.3969 47.9031 18.2152C47.3627 18.7093 46.8223 19.2033 46.3668 19.5816L44.2438 21.3341L44.2284 21.3418C42.6844 22.5847 40.9396 23.2563 39.2876 23.3876C38.199 23.4802 37.1491 23.3413 36.1918 22.9784C35.2114 22.6079 34.3468 22.0134 33.6983 21.2028C32.9958 20.3305 32.5326 19.2188 32.4245 17.9064H32.4322C32.409 17.5899 32.5017 17.2733 32.7178 17.0109L39.4651 8.98204C38.0446 8.95888 36.7863 9.15188 35.6051 9.52244C33.8064 10.086 32.1234 11.0587 30.286 12.3171C30.0776 12.4792 29.8074 12.5796 29.5217 12.5796H21.7477V27.2707L21.7786 36.666H26.3025C26.7348 36.666 27.1517 36.8899 27.3756 37.2913L32.9958 47.088C33.8141 48.5162 34.5398 49.7514 35.443 50.562C36.2922 51.3263 37.4039 51.7972 39.1177 51.8435C39.7585 51.859 40.3761 51.7509 40.9551 51.5116C41.3102 51.3649 41.6653 51.1642 42.0127 50.9094L38.3689 44.1004C38.0446 43.4982 38.2762 42.7494 38.8784 42.4328C39.4806 42.1086 40.2294 42.3402 40.5459 42.9424L44.5063 50.3458C45.9808 51.0947 47.3164 51.3263 48.513 51.0715C49.6092 50.8322 50.6437 50.176 51.6164 49.1106L45.9113 40.1554C45.5485 39.5842 45.7106 38.8199 46.2896 38.4493C46.8609 38.0865 47.6252 38.2486 47.9957 38.8276L54.0019 48.2614C55.0595 48.6938 56.0709 48.7864 57.0359 48.5239C57.9545 48.2692 58.8809 47.6824 59.7996 46.7252L54.357 36.473C54.0328 35.8708 54.2644 35.1143 54.8743 34.7977C55.4764 34.4735 56.233 34.7051 56.5495 35.315L62.1851 45.9223C62.9185 46.3469 63.7677 46.455 64.5783 46.3237C65.2886 46.2079 65.9756 45.8991 66.5392 45.4591C67.0796 45.0268 67.5042 44.4709 67.7049 43.8379C67.9288 43.1508 67.9056 42.3479 67.5428 41.4756L67.0719 40.6109ZM68.7085 38.4648H72.831V12.5873C72.831 12.5564 72.831 12.5178 72.8387 12.4869C72.8387 12.0855 72.8619 11.6995 72.9159 11.3366L68.7162 8.54972C68.6931 8.53428 68.6699 8.51884 68.6468 8.5034C68.0986 8.14056 67.4424 7.67736 66.7862 7.21416C64.4007 5.54664 61.9535 3.82508 59.3055 3.13027C57.8773 2.75199 56.2253 2.50495 54.5423 2.47407C53.0678 2.44319 51.5701 2.58215 50.1573 2.95271C49.3159 3.16887 48.4975 3.46996 47.741 3.8714C47.0693 4.22652 46.444 4.65884 45.8882 5.1838L43.0781 8.52656C42.9932 8.6964 42.8696 8.83536 42.723 8.95116L34.9721 18.1843C35.0879 18.771 35.3195 19.2651 35.636 19.6665C36.0066 20.122 36.5006 20.4617 37.0642 20.6779C37.6664 20.9017 38.3612 20.9867 39.0868 20.9249C40.268 20.8245 41.5341 20.3382 42.6689 19.4272L44.7919 17.6748C45.3323 17.227 45.7878 16.8101 46.2433 16.401C47.2392 15.49 48.2273 14.5868 49.2773 13.9614C51.6936 12.5178 54.1023 12.4715 56.48 16.4627L56.5032 16.5013L68.7085 38.4648ZM73.2942 40.9429H69.9978C70.4455 42.2476 70.4224 43.4828 70.0672 44.579C69.7044 45.7061 68.9942 46.6634 68.0832 47.3891C67.1954 48.0916 66.1146 48.578 64.9798 48.7632C63.8758 48.9485 62.7178 48.8482 61.637 48.4004C60.3863 49.7051 59.0662 50.5311 57.6921 50.9094C56.3102 51.2877 54.9129 51.2105 53.5001 50.7164C52.1568 52.2064 50.6746 53.1405 49.0379 53.4879C47.3704 53.8507 45.6025 53.596 43.7266 52.7159C43.1398 53.1714 42.53 53.5342 41.8892 53.7967C40.986 54.175 40.0364 54.3448 39.0405 54.3139C36.6628 54.2445 35.0647 53.5419 33.7909 52.3994C32.5712 51.3109 31.7606 49.9212 30.8342 48.3155L25.5768 39.1441H21.5007C21.2613 40.3253 20.8522 41.3289 20.2346 42.1318C19.1924 43.475 17.6715 44.1853 15.5563 44.139C15.5331 44.139 15.5099 44.139 15.4868 44.139H8.50016C6.74 44.4246 5.2346 43.9923 4.05344 42.6258C3.00352 41.4138 2.29327 39.4452 1.98447 36.5579C1.97675 36.527 1.97675 36.4884 1.96903 36.4498L0.131672 13.6758C-0.231168 11.2208 0.170272 9.48384 1.15843 8.29496C2.15431 7.09836 3.65972 6.55796 5.5048 6.47304C5.55884 6.46532 5.60516 6.46532 5.6592 6.46532H15.0699V6.47304C16.8455 6.44988 18.3741 6.75096 19.5321 7.4998C20.4662 8.10196 21.1378 8.95116 21.4775 10.1092H29.1435C31.0735 8.8122 32.8722 7.79316 34.864 7.16784C36.8249 6.55796 38.917 6.3418 41.426 6.64288L44.0122 3.58576C44.0585 3.52399 44.1048 3.46995 44.1666 3.41592C44.9 2.72111 45.7183 2.14983 46.5984 1.68663C47.5248 1.20027 48.513 0.829712 49.5475 0.559511C51.1841 0.134911 52.9057 -0.0272093 54.5886 0.00367078C56.4955 0.0422708 58.3483 0.320191 59.9463 0.737072C63.0034 1.54767 65.6437 3.39275 68.2067 5.19152C68.778 5.59296 69.3493 5.9944 70.0286 6.44216C70.0518 6.4576 70.075 6.47304 70.0981 6.48848L73.8192 8.97432C74.0044 8.71184 74.2206 8.47252 74.4676 8.25636C75.533 7.29908 77.0538 6.82816 79.0147 6.82816V6.82044H87.6766C87.7075 6.82044 87.7461 6.82044 87.7769 6.82816C89.9926 6.82044 91.7991 7.22188 93.0497 8.18688C94.4393 9.25996 95.0955 10.8889 94.8176 13.228C94.8176 13.2512 94.8099 13.2666 94.8099 13.2898L92.4707 37.4612C92.3009 39.6228 91.7219 41.3134 90.7028 42.4869C89.6143 43.7375 88.1089 44.3551 86.1326 44.2702H78.4435H78.4357C77.1079 44.3397 75.973 43.9768 75.0235 43.2203C74.3287 42.6567 73.7497 41.9002 73.2942 40.9429ZM10.8162 31.5476C11.7426 31.5476 12.4914 32.2965 12.4914 33.2229C12.4914 34.1493 11.7426 34.8981 10.8162 34.8981C9.88976 34.8981 9.14092 34.1493 9.14092 33.2229C9.14092 32.2965 9.88976 31.5476 10.8162 31.5476ZM83.7317 31.5476C84.6581 31.5476 85.4069 32.2965 85.4069 33.2229C85.4069 34.1493 84.6581 34.8981 83.7317 34.8981C82.8053 34.8981 82.0564 34.1493 82.0564 33.2229C82.0564 32.2965 82.8053 31.5476 83.7317 31.5476ZM19.2696 24.4143L19.2233 11.3444C19.2233 11.3212 19.2233 11.298 19.2233 11.2672C19.092 10.4488 18.7369 9.90072 18.2119 9.56104C17.494 9.09784 16.4209 8.92028 15.1008 8.93572H15.0853V8.94344H5.66692C5.65148 8.94344 5.63604 8.94344 5.6206 8.94344C4.45488 8.99748 3.56708 9.2754 3.06528 9.87756C2.52488 10.5183 2.33959 11.63 2.59436 13.3516C2.60208 13.3902 2.60208 13.421 2.60208 13.4596L4.43944 36.2568V36.2954C4.68648 38.6578 5.196 40.1709 5.91396 41.0046C6.48524 41.6686 7.26496 41.8538 8.19908 41.684C8.26856 41.6686 8.34576 41.6608 8.41524 41.6608V41.6531H15.4791C15.5254 41.6531 15.5717 41.6531 15.6103 41.6608C16.8609 41.684 17.7256 41.3134 18.266 40.6109C18.899 39.7926 19.2078 38.5111 19.2541 36.859H19.2464V24.4143H19.2696Z" fill="white"/>
</svg>
