<svg width="68" height="123" viewBox="0 0 68 123" fill="none" xmlns="http://www.w3.org/2000/svg">
<path d="M17.5422 121.404C18.8576 121.28 20.2327 121.83 21.6177 121.783C26.0445 121.639 30.2625 118.385 32.4427 114.641C36.2995 108.016 34.7356 99.9418 30.564 93.8935C27.7675 94.7825 24.8914 95.554 21.9756 95.9431C13.576 97.0669 0.835917 95.6278 0.0406945 84.7087C-0.661752 75.0442 7.86701 73.8265 15.0041 77.057C21.4189 79.9587 27.2174 84.7423 31.7237 90.1498C43.0324 86.0606 51.591 73.2797 45.5142 61.3543C45.0934 60.5257 43.5261 57.9863 42.9032 57.4361C42.8005 57.3456 42.7475 57.2315 42.5752 57.2818C36.6806 58.8182 24.9974 62.8202 20.3089 57.2315C17.6019 54.0078 18.8378 49.3919 22.2274 47.2651C27.4162 44.0078 35.0669 47.188 39.6461 50.348C41.1239 51.3711 42.4161 52.6358 43.8243 53.7428C55.6466 50.2641 66.6439 41.7938 64.6492 27.8959C63.3305 18.701 56.2795 11.5256 48.6089 7.16471C48.3008 7.12446 48.2941 7.13787 48.3339 7.44314C48.5327 9.08687 49.2484 11.1935 49.5698 12.9379C49.7885 14.1288 50.4147 16.7889 50.3584 17.8289C50.2921 19.0197 49.3345 19.4592 48.2477 19.2881C47.204 19.1237 47.1775 18.1979 46.9389 17.3391C45.4976 12.2066 44.6295 6.6783 43.377 1.48209C43.4731 0.257671 44.4771 -0.107977 45.5804 0.0262058L61.0641 2.25028C62.5121 2.77359 62.3066 5.24255 60.7626 5.42705C57.1642 5.13185 53.4929 4.24624 49.921 3.91079C49.709 3.89066 49.2385 3.733 49.2815 4.07852C63.8838 11.1533 74.235 29.278 63.6916 44.4037C59.3809 50.5895 52.87 53.783 46.0509 56.3862C56.3159 69.7608 47.7309 87.2146 33.5063 92.6993C36.5248 98.4121 38.281 104.35 36.6806 110.844C34.8217 118.389 28.0557 123.638 20.299 122.937C19.6993 122.884 16.8464 122.464 17.5455 121.404M28.5594 91.344C26.6011 88.6637 23.8642 86.4296 21.2069 84.4471C17.6019 81.7567 9.52041 75.9533 5.17651 79.3012C2.78421 81.1462 2.66162 84.1351 3.65564 86.8221C6.87298 95.5104 21.6707 93.3232 28.5594 91.3407M40.153 54.7424C36.6176 51.3912 26.0743 45.5308 22.5057 51.2134C21.6376 52.5955 21.6078 54.4539 22.8669 55.6012C25.183 57.7112 30.6932 56.9363 33.5394 56.4231C35.7661 56.0205 37.9662 55.3094 40.153 54.7424Z" fill="url(#paint0_linear_24_414)"/>
<defs>
<linearGradient id="paint0_linear_24_414" x1="34" y1="0" x2="34" y2="123" gradientUnits="userSpaceOnUse">
<stop stop-color="white"/>
<stop offset="1" stop-color="white" stop-opacity="0"/>
</linearGradient>
</defs>
</svg>
