<svg width="45" height="38" viewBox="0 0 45 38" fill="none" xmlns="http://www.w3.org/2000/svg">
<path d="M25.3658 19.9868C26.15 19.9847 25.8526 18.9907 25.9015 18.4366C26.1256 15.9799 28.1586 14.8921 28.7473 12.6392C30.0713 7.57711 25.1458 3.02228 20.2202 4.93506C16.8469 6.24488 15.2274 10.0643 16.6045 13.4316C17.3072 15.1488 19.11 16.3282 19.3096 18.2818C19.2913 18.3042 18.8146 18.0536 18.7963 18.0312C18.7311 17.9518 18.5763 17.4058 18.4969 17.2429C17.8735 15.9595 16.8428 15.1203 16.2602 13.8349C13.7444 8.27174 19.0611 2.40709 24.8076 4.40543C28.6861 5.75395 30.5032 10.2171 28.7574 13.9429C27.8652 15.8455 26.4984 16.3751 26.3639 18.8399C26.3374 19.3186 26.4923 19.5855 26.258 20.0275C26.205 20.1294 26.0441 20.2455 26.0339 20.3066C25.9667 20.7588 26.1195 21.6021 26.0706 22.1338C26.0278 22.6166 25.7528 22.9812 25.3821 23.2684C25.2904 23.3397 25.0704 23.407 25.0378 23.4538C25.0011 23.5088 24.9726 23.7573 24.9013 23.906C24.1598 25.4603 21.7765 25.1425 20.868 23.9203C20.7621 23.7797 20.6887 23.5271 20.6419 23.4701C20.593 23.409 20.1672 23.2216 20.0409 23.1014C19.5846 22.6695 19.4869 21.9953 19.4828 21.3964L10.4281 21.3679C10.3813 21.1703 10.0554 21.1194 10.1633 20.9849L10.5789 20.9299L10.6135 20.2577C10.6665 20.0988 10.9557 20.1171 11.0331 20.2944C11.078 20.3962 10.9435 20.9686 11.0515 20.9849H16.1909C16.0341 19.8951 16.8204 19.8829 16.6615 20.9849L19.4848 20.9258L19.4726 20.3208C19.1956 20.0907 19.0224 19.7382 18.778 19.4857C18.5722 19.2718 18.2137 19.0844 18.063 18.8195C17.8369 18.6892 17.6311 19.3512 17.4213 19.0762C17.2624 18.8664 17.5415 18.6851 17.6556 18.5364L15.9546 16.7764C15.7224 16.6562 15.533 17.4629 15.2172 17.2245C14.8343 16.9373 15.3578 16.6501 15.5431 16.424V16.3384L14.2802 15.2262C14.1641 15.2832 14.1152 15.4951 14.0174 15.544C13.777 15.6621 13.5265 15.5623 13.6161 15.2629C13.6813 15.0408 14.0643 15.0347 13.9298 14.8086L12.4591 13.401C12.2411 13.5619 11.958 14.0977 11.6626 13.8451C11.3672 13.5925 11.8459 13.291 12.0741 13.1586L12.0109 12.9671L10.6298 11.639L10.1592 12.0362C9.59499 11.8875 10.092 11.5392 10.3141 11.311C10.09 11.1236 8.88202 9.78526 8.70684 9.81582C8.49906 9.94212 8.18536 10.5104 7.90221 10.3149C7.52739 10.0562 8.40332 9.61823 8.37073 9.43897L6.19924 7.34285V10.3414C6.56998 10.3617 7.18924 10.1947 7.05683 10.7569L6.19924 10.8119V12.1055L6.80831 12.1136C6.97331 12.1666 6.89183 12.3967 6.83683 12.5088L6.19924 12.5169V14.9268L6.9835 14.9369C7.4235 15.4605 6.54961 15.4258 6.19924 15.3973V16.8966L6.08109 16.9556C5.95887 16.8029 5.73276 16.701 5.72461 16.4871L5.78165 6.67674L5.98331 6.59322L19.8963 19.9236V12.9569L22.3713 7.96414C22.5098 7.77266 22.7706 7.87248 22.8582 8.05377L25.3637 13.073V19.9807L25.3658 19.9868ZM22.2185 9.69767C22.4935 9.73841 22.8439 9.66915 23.1291 9.69767C23.013 9.386 22.8521 9.04378 22.6871 8.75452C22.6504 8.69137 22.6932 8.61192 22.5709 8.6384L22.0719 9.61008C22.0658 9.62841 22.2022 9.69563 22.2185 9.69767ZM23.3613 10.1112C22.848 10.264 22.3978 10.2456 21.8926 10.0766L20.7193 12.4599C21.1185 12.3255 21.4771 12.6045 21.7989 12.8082C22.3448 12.2888 22.9682 12.2521 23.453 12.8693C23.6811 12.5271 24.0743 12.3356 24.4817 12.4579L23.3613 10.1071V10.1112ZM24.8361 19.9868V13.2543C24.8361 13.236 24.6141 13.0282 24.5632 12.9977C24.1639 12.7593 23.9256 12.9447 23.7198 13.3134V19.1944C23.7198 19.4001 23.4591 19.6384 23.3022 19.4307L23.235 13.3827C22.9437 12.6595 22.08 12.7899 22.0108 13.5436C21.8458 15.3219 22.2369 17.526 22.0169 19.2514C21.9884 19.4755 21.7989 19.5508 21.8335 19.8381C21.8498 19.9705 22.1656 19.9766 22.2756 19.9868C23.1006 20.0499 24.003 19.9358 24.8361 19.9847V19.9868ZM20.3669 13.2543V19.8971L20.4545 19.9847H21.5137C21.5443 19.9847 21.7561 19.887 21.7643 19.8401L21.5402 19.2514V13.3725C21.4322 13.018 21.0269 12.8286 20.6765 12.9732C20.6215 12.9956 20.377 13.2177 20.3669 13.2523V13.2543ZM19.9554 20.4573V21.4575H25.6V20.4573H19.9554ZM25.6 21.926L20.0145 21.9566C20.0654 22.3681 20.3424 22.7327 20.6928 22.9242C22.0169 22.8346 23.5059 23.0484 24.8097 22.9283C25.2761 22.8855 25.6367 22.3864 25.6 21.926ZM24.5408 23.4538H21.1308C21.4587 24.016 21.9721 24.3481 22.628 24.397C23.4774 24.4621 24.2434 24.3583 24.5408 23.4538Z" fill="white"/>
<path d="M34.5958 21.5146C34.3717 21.9281 35.0399 22.1318 34.8851 22.5352C33.0843 25.1731 31.4567 28.0046 29.5867 30.5876C28.7963 31.6815 27.3256 33.7593 25.7795 32.5941C24.2986 31.4778 25.9873 29.0333 26.6921 27.8702C28.0284 25.6681 29.7232 22.8815 31.2551 20.8505C31.5932 20.4024 31.6889 20.2537 32.2695 20.5735L32.5302 20.2435C32.4345 19.9787 32.2512 19.7933 32.1412 19.5326C31.5851 18.235 32.0128 16.8477 33.066 15.9596C34.058 15.1244 35.2314 15.3261 36.3395 14.7068C36.7082 14.5011 37.1604 13.9042 37.468 14.499C37.6066 14.7679 37.4416 14.9288 37.4171 15.1977C37.2643 16.9007 38.8899 17.7664 37.7716 19.8422C37.3967 20.5389 36.2682 21.5166 35.4473 21.5166H34.5958V21.5146ZM36.8895 15.2242L35.8384 17.2674C35.818 17.4161 36.0299 17.5872 36.0604 17.7848C36.2458 18.9846 34.661 19.2861 34.388 18.2248C34.2475 17.6748 34.7425 17.0596 35.321 17.1472L35.4188 17.082L36.4169 15.1672C35.6041 15.7314 34.5428 15.6011 33.7117 16.0757C32.1106 16.9924 31.966 19.1965 33.3308 20.4003C35.2904 22.1298 38.2319 20.1416 37.5638 17.6381C37.3458 16.8253 37.1136 16.5605 37.0016 15.6153C36.9914 15.5298 36.971 15.2588 36.8916 15.2263L36.8895 15.2242ZM35.6632 18.0027C35.6632 17.7685 35.4738 17.579 35.2395 17.579C35.0053 17.579 34.8158 17.7685 34.8158 18.0027C34.8158 18.237 35.0053 18.4264 35.2395 18.4264C35.4738 18.4264 35.6632 18.237 35.6632 18.0027ZM34.1843 21.3394C33.6527 21.2661 33.2228 20.9076 32.8338 20.5755L32.5975 21.1052L31.8723 20.8179L31.5382 21.3394L34.0967 22.8591C34.8341 22.1909 34.0397 22.1868 33.9582 21.8874C33.8441 21.7224 34.2495 21.4128 34.1843 21.3415V21.3394ZM33.8278 23.2257L31.3223 21.6979L31.0106 22.0789L33.5202 23.5659C33.6567 23.6413 33.8747 23.297 33.8258 23.2278L33.8278 23.2257ZM33.4204 23.9265L30.8538 22.4028C30.7356 22.3803 30.5747 22.7633 30.6012 22.804L33.1067 24.3318L33.4204 23.9265ZM32.9499 24.6904L30.3038 23.187C29.0204 25.2465 27.4743 27.2591 26.356 29.4122C25.8773 30.3309 24.9952 31.8404 26.4252 32.3598C27.5069 32.753 28.4297 31.2517 29.0367 30.5652L32.9499 24.6904Z" fill="white"/>
<path d="M15.0049 22.944L15.6343 22.9277C18.1358 23.0459 20.2401 23.8098 22.159 25.3987C26.396 28.9044 23.5054 35.1439 17.9749 32.8155C16.8565 32.345 15.5854 31.3407 14.2919 31.9926C13.97 32.1555 13.6441 32.6322 13.8723 32.9785C14.1289 33.3635 14.4976 33.1272 14.8093 33.1007C17.0806 32.895 17.2476 35.6511 15.4795 36.7694C12.4158 38.7107 7.77947 35.9668 6.66317 32.8359C4.71984 27.3848 9.91837 23.0316 15.0008 22.9461L15.0049 22.944ZM15.123 23.4146C10.8615 23.5042 6.13762 26.6616 6.80169 31.4059C7.24984 34.5959 10.6863 37.4091 13.913 36.8448C15.1108 36.635 16.7751 35.5391 16.0641 34.1376C15.5182 33.062 14.4019 33.9766 13.7256 33.5366C13.0208 33.0783 13.2978 32.0822 13.9171 31.6768C15.5895 30.5809 17.3719 32.2085 18.9099 32.6444C22.2791 33.5998 24.8071 30.7581 23.2304 27.56C21.8371 24.7387 18.1236 23.3535 15.123 23.4146Z" fill="white"/>
<path d="M33.7138 9.81469C35.1621 10.1956 36.5677 10.6723 37.8286 11.4953C38.122 11.5564 38.346 11.0145 38.9164 11.4606C39.1608 11.6521 39.2342 11.9108 39.2505 12.2143C40.5114 12.8254 41.7255 13.5588 42.797 14.4591H42.8805C42.9334 14.2025 43.4386 14.0904 43.6709 14.1108C43.842 14.1251 44.9155 14.7566 44.9725 14.8727C45.1518 15.2393 44.4021 16.6612 44.0579 16.7814C43.7136 16.9016 42.8785 16.4086 42.6055 16.1825C42.4405 16.046 42.3529 15.8912 42.3509 15.6691C42.3468 15.3717 42.6157 14.9541 42.4486 14.7525C41.536 14.1027 40.5745 13.3551 39.554 12.8825C39.3218 12.7745 38.9042 12.524 38.9694 12.9334C40.1631 13.5893 41.1123 14.8319 41.5483 16.1214C41.8375 16.9749 41.8803 17.8264 41.8253 18.7247C41.8171 18.8612 41.7031 19.0527 41.7194 19.128C41.7377 19.2238 41.9842 19.3542 42.0351 19.5151C42.1858 20.008 41.7947 21.1793 41.2183 21.1468C41.0655 21.1386 40.381 20.7516 40.269 20.6355C39.831 20.1792 40.6601 18.9427 41.2977 19.0486C41.4097 18.0219 41.3975 16.983 41.0146 16.0093C39.4847 12.1267 33.8197 10.9188 31.0779 14.1841C31.471 14.614 30.8069 15.8484 30.3282 15.8688C30.0655 15.879 29.2629 15.4186 29.2466 15.1334C29.2262 14.8014 29.876 13.9193 30.2427 13.8378C30.4362 13.7951 30.5992 13.8969 30.7132 13.846C30.8355 13.793 31.4792 13.0841 31.7195 12.909C32.9825 11.9943 34.7405 11.6867 36.2703 11.8762L37.5068 12.1125L37.5251 11.8253C36.2805 11.1367 34.9442 10.5684 33.5488 10.2995C33.3593 10.6132 33.0925 11.0186 32.7034 11.0756C32.243 11.1428 31.2042 10.4339 31.196 9.90839C31.1919 9.6171 31.8234 8.54358 32.0699 8.43969C32.5588 8.23191 34.0866 9.09358 33.7138 9.81876V9.81469ZM31.8519 10.2078C32.2084 10.5684 32.7238 10.7171 33.0579 10.2465C33.4347 9.71487 33.343 9.2545 32.7299 9.00598C32.2593 8.81654 32.239 8.86543 31.9619 9.26673C31.7419 9.58654 31.5342 9.88191 31.8519 10.2058V10.2078ZM38.6434 12.6278C38.6618 12.6177 38.7595 12.361 38.7657 12.3101C38.9103 11.2732 37.7818 11.9353 37.8918 12.304C38.0323 12.4303 38.4703 12.7317 38.6414 12.6258L38.6434 12.6278ZM30.3568 15.3962L30.7743 14.6649C30.318 13.8888 29.9677 14.4754 29.7314 15.0193L30.3588 15.3962H30.3568ZM43.571 14.5956C43.2818 14.6119 42.9681 14.8666 42.8988 15.1497C42.6951 15.9706 43.2247 16.0399 43.8481 16.3353C43.9662 16.3129 44.5529 15.2617 44.5244 15.1436C44.3268 14.9949 43.8012 14.5834 43.571 14.5956ZM41.2183 19.4743C40.9127 19.5008 40.6866 19.9836 40.601 20.2443L41.2101 20.6782C41.5747 20.4542 41.9149 19.4132 41.2183 19.4743Z" fill="white"/>
<path d="M5.72899 18.8104L6.11195 18.5782L6.40325 18.7534C7.61325 19.9349 8.91696 21.0247 10.1392 22.1899C10.2675 22.3121 11.0986 23.1127 11.0783 23.188L10.7544 23.4529L9.25511 22.0453C9.14918 22.6788 8.47289 23.2593 7.95344 23.5975C7.88011 23.6443 7.6764 23.6158 7.82307 23.7543C7.94122 23.8664 8.71122 24.4877 8.7214 24.5508C8.68881 24.6792 8.48918 24.8951 8.35474 24.8605L4.1951 21.0186C4.01584 20.8047 4.31121 20.6682 4.31528 20.4564C3.43528 20.5745 2.59805 20.5582 1.87694 19.9838C1.06416 19.336 0.416381 17.9345 0.157677 16.9404C0.0823063 16.6512 -0.176398 15.9586 0.196381 15.8364C2.40454 15.5186 5.75954 15.9097 5.72695 18.8084L5.72899 18.8104ZM0.554903 16.5188C0.970459 18.0119 1.73435 20.1732 3.64306 20.049C3.95473 20.0286 4.31121 19.8208 4.52917 19.8127C4.8001 19.8045 4.91621 20.1019 5.25028 19.6558C5.49676 19.3238 5.28899 19.2301 5.26454 18.953C5.23399 18.619 5.28899 18.3766 5.1851 18.0343C4.68399 16.3741 2.41676 16.1908 0.968422 16.2254L2.70398 17.4008C2.79361 17.5373 2.68361 17.7491 2.52676 17.7532C2.34954 17.7573 0.856387 16.6573 0.556942 16.5188H0.554903ZM8.25696 21.0471L6.16899 19.1649C6.04269 19.1425 6.10177 19.1914 6.07732 19.2464C6.00806 19.3971 5.98362 19.5988 5.9164 19.7353C5.73103 20.1141 5.0751 20.5684 4.7288 20.8129L6.75769 22.6971L8.25492 21.0492L8.25696 21.0471ZM7.02251 22.9273L7.55214 23.3714C8.06344 22.8866 8.62567 22.4425 9.01678 21.8477L8.52177 21.3404C8.04918 21.8803 7.64177 22.5545 7.02251 22.9273Z" fill="white"/>
<path d="M13.3531 5.76672C13.4306 5.74838 13.4693 5.78505 13.5283 5.80338C13.8094 5.89097 15.2782 6.59987 15.5063 6.7669C15.7161 6.91968 15.7385 7.08265 15.5022 7.21913L15.3087 7.20079L13.3144 6.25357C13.125 6.16597 13.1556 5.81357 13.3531 5.76468V5.76672Z" fill="white"/>
<path d="M31.5249 5.76671C31.5717 5.7606 31.6145 5.75449 31.6573 5.78504C31.7877 5.85226 31.8325 6.0906 31.7184 6.2006C31.6369 6.28004 30.7691 6.61819 30.5797 6.70578C30.3454 6.81578 29.7975 7.16615 29.6162 7.213C29.278 7.30263 29.2251 7.02764 29.3656 6.78523L31.5269 5.76467L31.5249 5.76671Z" fill="white"/>
<path d="M22.25 0.145115C22.2989 -0.0280336 22.6615 -0.0443317 22.6615 0.086039V2.84827C22.6615 2.96845 22.25 2.96845 22.25 2.84827V0.143076V0.145115Z" fill="white"/>
<path d="M16.437 2.18212C16.4757 2.12101 16.7384 2.08027 16.7812 2.20046L18.2194 3.99713L18.252 4.13768C18.1644 4.39639 17.9973 4.41065 17.8058 4.23139C17.6775 4.11324 16.5021 2.62823 16.4594 2.52231C16.4247 2.43879 16.3942 2.24731 16.437 2.18008V2.18212Z" fill="white"/>
<path d="M28.4724 2.18189C28.5702 2.33671 28.4154 2.57097 28.3298 2.69727C27.955 3.24727 27.4172 3.78505 27.0118 4.32079C26.7816 4.42875 26.6431 4.12116 26.7491 3.93782L28.1566 2.16763C28.2076 2.08411 28.4439 2.13504 28.4744 2.18189H28.4724Z" fill="white"/>
<path d="M8.82827 23.1157C9.29883 23.0179 8.80383 24.0935 8.44531 23.4885C8.51865 23.3683 8.68772 23.1463 8.82827 23.1157Z" fill="white"/>
<path d="M26.5996 30.0402C26.675 30.1298 26.3593 30.9161 26.3633 31.13C26.3633 31.2318 26.7198 31.904 26.398 31.8633C26.0252 31.8165 25.9783 31.3785 26.017 31.075C26.0293 30.9731 26.4163 29.8283 26.5996 30.0422V30.0402Z" fill="white"/>
<path d="M27.9815 30.9336L28.1139 31.0701C28.1241 31.1658 27.4193 31.8808 27.3358 31.8645C27.1545 31.8258 27.348 31.5284 27.3969 31.4571C27.46 31.3655 27.9143 30.9316 27.9815 30.9336Z" fill="white"/>
<path d="M30.1905 24.6283C30.0866 24.4857 30.3677 24.0172 30.5205 23.9316L30.8281 24.1394L30.8077 24.2189C30.6142 24.3676 30.4879 24.7566 30.1905 24.6263V24.6283Z" fill="white"/>
<path d="M34.9874 20.4063C35.0709 20.3798 35.5394 20.3676 35.5354 20.4858C35.3093 20.9543 34.5881 20.5306 34.9874 20.4063Z" fill="white"/>
<path d="M22.5091 29.8903C22.5091 30.7499 21.8124 31.4466 20.9528 31.4466C20.0931 31.4466 19.3965 30.7499 19.3965 29.8903C19.3965 29.0306 20.0931 28.334 20.9528 28.334C21.8124 28.334 22.5091 29.0306 22.5091 29.8903ZM20.6472 28.8799C19.6002 29.0734 19.6185 30.7947 20.8102 30.9231C22.5376 31.1105 22.3583 28.5642 20.6472 28.8799Z" fill="white"/>
<path d="M14.8467 25.9722C14.8467 26.7789 14.1928 27.4307 13.3882 27.4307C12.5836 27.4307 11.9297 26.7768 11.9297 25.9722C11.9297 25.1676 12.5836 24.5137 13.3882 24.5137C14.1928 24.5137 14.8467 25.1676 14.8467 25.9722ZM13.0602 25.0555C12.7139 25.135 12.4002 25.6177 12.3941 25.964C12.3738 27.0335 13.8608 27.2942 14.2641 26.3776C14.6267 25.5505 13.9056 24.862 13.0602 25.0555Z" fill="white"/>
<path d="M19.4286 26.1616C19.4286 26.9662 18.7767 27.618 17.9721 27.618C17.1675 27.618 16.5156 26.9662 16.5156 26.1616C16.5156 25.3569 17.1675 24.7051 17.9721 24.7051C18.7767 24.7051 19.4286 25.3569 19.4286 26.1616ZM17.7073 25.2327C16.3791 25.5077 17.1125 27.724 18.4814 27.0069C19.4266 26.5119 18.9071 24.9842 17.7073 25.2327Z" fill="white"/>
<path d="M11.253 28.8706C11.253 29.6753 10.6011 30.3292 9.79446 30.3292C8.98779 30.3292 8.33594 29.6773 8.33594 28.8706C8.33594 28.064 8.98779 27.4121 9.79446 27.4121C10.6011 27.4121 11.253 28.064 11.253 28.8706ZM9.09983 28.1801C7.9876 29.2984 10.0919 30.6347 10.6765 29.3167C11.1532 28.2412 9.8352 27.4427 9.09983 28.1801Z" fill="white"/>
<path d="M15.664 35.1563C15.3748 36.7106 12.967 36.68 11.7835 36.3602C10.6651 36.0587 9.35124 35.2521 8.60772 34.3639C8.46309 34.1928 8.08216 33.7915 8.42846 33.7141C8.56902 33.6836 8.99272 34.2356 9.13735 34.3639C10.5999 35.6452 13.0892 36.7636 14.9409 35.6391C15.0713 35.5597 15.5561 35.0728 15.664 35.1584V35.1563Z" fill="white"/>
<path d="M22.4363 27.9113C22.3874 27.8828 22.2469 27.5569 22.1898 27.4835C21.8965 27.0904 21.4157 26.6015 21.1672 26.2145C21.0674 26.0596 20.9676 25.8498 21.1611 25.75C21.538 25.9069 22.7989 27.5467 22.7174 27.8298C22.6889 27.9276 22.5137 27.9561 22.4363 27.9113Z" fill="white"/>
<path d="M20.5443 31.8613C20.2204 32.0732 19.0226 31.513 19.1388 31.1341C19.2202 30.8673 19.6521 31.3195 19.8008 31.401C19.9149 31.4641 20.6502 31.7147 20.5443 31.8613Z" fill="white"/>
<path d="M17.486 31.3926C17.5736 31.3172 18.2845 31.5352 18.4251 31.5983C18.5351 31.6493 18.7734 31.7165 18.7204 31.8896C18.6145 32.0322 18.4516 31.9833 18.309 31.9487C18.2173 31.9263 17.3454 31.5128 17.486 31.3906V31.3926Z" fill="white"/>
<path d="M15.5084 29.4035C15.6209 29.4035 15.7121 29.3123 15.7121 29.1998C15.7121 29.0873 15.6209 28.9961 15.5084 28.9961C15.3959 28.9961 15.3047 29.0873 15.3047 29.1998C15.3047 29.3123 15.3959 29.4035 15.5084 29.4035Z" fill="white"/>
<path d="M12.006 31.0521C12.1485 31.1926 11.9163 31.4309 11.786 31.3658C11.4906 31.217 11.8206 30.8687 12.006 31.0521Z" fill="white"/>
<path d="M12.4134 33.3326C12.509 33.3326 12.5865 33.2551 12.5865 33.1595C12.5865 33.0639 12.509 32.9863 12.4134 32.9863C12.3178 32.9863 12.2402 33.0639 12.2402 33.1595C12.2402 33.2551 12.3178 33.3326 12.4134 33.3326Z" fill="white"/>
<path d="M4.72937 19.1641C4.8027 19.2292 4.26085 19.6754 4.16918 19.6917C3.9777 19.7283 3.28918 19.6061 3.20158 19.4268C3.17714 19.2944 3.26066 19.3454 3.34621 19.3393C3.82084 19.3067 4.26288 19.2496 4.72937 19.1641Z" fill="white"/>
<path d="M4.90605 18.8104C4.83883 18.8817 4.22976 18.2563 4.20939 18.1219C4.11772 17.5209 5.06494 18.4926 4.90605 18.8104Z" fill="white"/>
<path d="M6.49229 21.9262L5.9321 21.5168L5.49414 20.9281C5.63673 20.8018 6.65933 21.7022 6.49229 21.9262Z" fill="white"/>
<path d="M20.8385 29.1582C20.9281 29.5636 20.4942 29.6715 20.1927 29.7449C20.1194 29.3273 20.5023 29.2091 20.8385 29.1582Z" fill="white"/>
<path d="M17.8395 25.5145C17.9433 25.602 17.373 25.9259 17.3119 25.8669C17.2874 25.5695 17.6093 25.488 17.8395 25.5145Z" fill="white"/>
<path d="M9.5506 28.2773C9.56282 28.2895 9.57097 28.4137 9.51393 28.4586C9.48745 28.4789 9.09634 28.7071 9.08004 28.6887C8.98226 28.4586 9.43856 28.1632 9.5506 28.2773Z" fill="white"/>
<path d="M38.5029 8.48618C38.3257 8.48618 38.1729 8.38026 38.1118 8.21322L37.6494 6.96452L36.3823 6.48581C36.2173 6.4247 36.1094 6.27192 36.1094 6.0947C36.1094 5.91747 36.2153 5.7647 36.3823 5.70359L37.631 5.24118L38.1098 3.97413C38.1709 3.80913 38.3236 3.70117 38.5009 3.70117C38.6781 3.70117 38.8309 3.8071 38.892 3.97413L39.3707 5.24118L40.6194 5.70359C40.7844 5.7647 40.8923 5.91747 40.8923 6.0947C40.8923 6.27192 40.7864 6.4247 40.6194 6.48581L39.3707 6.94822L38.892 8.21526C38.8309 8.38026 38.6781 8.48822 38.5009 8.48822L38.5029 8.48618ZM38.2931 4.04136L38.4744 4.10858L38.012 5.35729C37.9692 5.47136 37.8796 5.56099 37.7655 5.60377L36.5168 6.06618V6.11914L37.7655 6.58155C37.8796 6.62433 37.9692 6.71396 38.012 6.82803L38.4744 8.07674H38.5273L38.9898 6.82803C39.0325 6.71396 39.1222 6.62433 39.2362 6.58155L40.4849 6.11914L40.5522 5.88284L40.4849 6.06414L39.2362 5.60174C39.1222 5.55896 39.0325 5.46932 38.9898 5.35525L38.5273 4.10654L38.291 4.03932L38.2931 4.04136Z" fill="white"/>
<path d="M40.7395 9.72118C40.6601 9.72118 40.5929 9.67432 40.5644 9.59895L40.3566 9.03877L39.7882 8.82487C39.7149 8.79839 39.666 8.72914 39.666 8.64969C39.666 8.57025 39.7129 8.50098 39.7882 8.4745L40.3484 8.26673L40.5623 7.69839C40.5888 7.62506 40.6581 7.57617 40.7375 7.57617C40.8169 7.57617 40.8842 7.62506 40.9127 7.69839L41.1266 8.26673L41.6868 8.4745C41.7601 8.50098 41.809 8.57025 41.809 8.64969C41.809 8.72914 41.7601 8.79635 41.6868 8.82487L41.1266 9.03266L40.9127 9.60099C40.8862 9.67432 40.8169 9.72321 40.7375 9.72321L40.7395 9.72118ZM40.6458 7.73098L40.7273 7.76154L40.5195 8.32172C40.5012 8.37265 40.4605 8.41339 40.4095 8.43173L39.8494 8.6395V8.66395L40.4095 8.87173C40.4605 8.89006 40.5012 8.9308 40.5195 8.98173L40.7273 9.54192H40.7518L40.9595 8.98173C40.9779 8.9308 41.0186 8.89006 41.0695 8.87173L41.6297 8.66395L41.6603 8.55802L41.6297 8.6395L41.0695 8.43173C41.0186 8.41339 40.9779 8.37265 40.9595 8.32172L40.7518 7.76154L40.6458 7.73098Z" fill="white"/>
<path d="M35.8802 5.50438C35.8007 5.50438 35.7335 5.45753 35.705 5.38216L35.4972 4.82197L34.9289 4.60808C34.8555 4.5816 34.8066 4.51234 34.8066 4.43289C34.8066 4.35345 34.8535 4.28419 34.9289 4.25771L35.4891 4.04993L35.7029 3.4816C35.7294 3.40827 35.7987 3.35938 35.8781 3.35938C35.9576 3.35938 36.0248 3.40827 36.0533 3.4816L36.2672 4.04993L36.8274 4.25771C36.9007 4.28419 36.9496 4.35345 36.9496 4.43289C36.9496 4.51234 36.9007 4.57956 36.8274 4.60808L36.2672 4.81586L36.0533 5.3842C36.0268 5.45753 35.9576 5.50642 35.8781 5.50642L35.8802 5.50438ZM35.7865 3.51419L35.8679 3.54475L35.6602 4.10493C35.6418 4.15586 35.6011 4.1966 35.5502 4.21494L34.99 4.42271V4.44715L35.5502 4.65493C35.6011 4.67326 35.6418 4.71401 35.6602 4.76493L35.8679 5.32512H35.8924L36.1002 4.76493C36.1185 4.71401 36.1592 4.67326 36.2102 4.65493L36.7704 4.44715L36.8009 4.34123L36.7704 4.42271L36.2102 4.21494C36.1592 4.1966 36.1185 4.15586 36.1002 4.10493L35.8924 3.54475L35.7865 3.51419Z" fill="white"/>
<path d="M10.4559 21.3688H10.0566V20.9614C10.0566 20.9614 10.3215 20.9472 10.5822 20.9309C10.8429 20.9146 10.7574 20.5703 10.7574 20.5703L10.8878 21.1712L10.5211 21.2751L10.4559 21.3688Z" fill="white"/>
<path d="M14.9998 18.7833H8.48242V12.7754L14.9998 18.7833ZM8.7474 18.5185H14.3218L8.7474 13.3795V18.5185Z" fill="white"/>
<path d="M10.265 17.3054C10.4664 17.3054 10.6296 17.1422 10.6296 16.9408C10.6296 16.7394 10.4664 16.5762 10.265 16.5762C10.0636 16.5762 9.90039 16.7394 9.90039 16.9408C9.90039 17.1422 10.0636 17.3054 10.265 17.3054Z" fill="white"/>
<path d="M21.541 18.6518V20.1062H22.1297L22.0869 17.9572L21.8894 17.7168L21.541 18.6518Z" fill="white"/>
<path d="M17.9489 18.8185L19.5745 20.5256L19.6356 20.1059L17.6719 18.1035L17.9489 18.8185Z" fill="white"/>
</svg>
