<svg width="45" height="44" viewBox="0 0 45 44" fill="none" xmlns="http://www.w3.org/2000/svg">
<path d="M35.4454 10.2367H43.7489C44.2665 10.2367 45.0947 11.3039 44.9911 11.856V27.3195C44.9394 27.7976 44.6707 28.3645 44.2468 28.6159C44.1926 28.648 43.7736 28.8156 43.7465 28.8156H41.9965V28.3054H43.6183C43.7933 28.3054 44.4144 27.7755 44.4144 27.5734V26.5875H35.4429C35.3862 27.8962 35.5193 29.2641 35.4454 30.5655C35.4355 30.7627 35.4035 31.2877 35.364 31.438C35.1989 32.0764 34.1834 32.1454 33.6585 32.0295L33.5993 31.6105C33.9789 31.6869 34.8711 31.5933 34.8711 31.0708V29.1927H32.8032C32.7687 29.1927 32.3127 28.7761 32.293 28.749C32.256 28.7022 32.256 28.6775 32.2634 28.6209H34.8711V12.4598L7.9566 12.556V28.6209H26.2175L26.0573 29.1927H7.9566V31.5144C8.01328 31.6056 8.08229 31.6031 8.17595 31.613C9.33436 31.7486 10.9857 31.6056 12.1836 31.6056C16.8468 31.6056 21.51 31.6007 26.1732 31.6179L26.4689 32.1799L25.7123 32.1873C25.6926 32.3007 25.6531 32.414 25.6433 32.5299C25.488 34.3414 25.769 36.3452 25.6285 38.1765C25.5841 38.4131 25.2982 38.7877 25.1035 38.9233C25.0246 38.9775 24.5834 39.1772 24.5317 39.1772H16.132C16.1098 39.1772 16.0655 39.0589 15.9718 39.2092L16.1911 41.0898C16.2725 41.2081 17.1499 41.1243 17.389 41.1637C17.9953 41.2672 19.2203 42.5464 18.4537 43.0886H7.25662C6.57144 42.5489 7.82104 41.2746 8.31891 41.1637C8.54319 41.1144 9.56358 41.1957 9.61041 41.1489L9.86674 39.1772H1.24522C0.656159 39.1772 -0.0364232 38.3416 0.00301198 37.7476V21.9686C-0.0487467 21.488 0.577291 20.6007 1.05544 20.6007H7.44887V9.2434C7.44887 9.05116 7.77421 8.78004 7.9566 8.73321L34.5877 8.70117C35.5021 8.78251 35.475 9.48494 35.4429 10.2317L35.4454 10.2367ZM34.8736 9.27791H7.95906V11.9546H34.8736V9.27791ZM44.4169 12.3982C44.439 11.8141 44.4883 11.2891 43.9289 10.944C43.8475 10.8948 43.4951 10.7419 43.431 10.7419H35.4454V26.0748H44.4169V12.9676H36.0172V12.3958H44.4169V12.3982ZM7.45133 21.1799H1.11953C0.979039 21.1799 0.579758 21.5792 0.579758 21.7197V36.1308H25.138V32.1848H7.86294C7.7816 32.1848 7.44887 31.8521 7.44887 31.7707V21.1775L7.45133 21.1799ZM25.138 36.641H0.579758V38.0089C0.579758 38.1592 0.96671 38.561 1.15156 38.5832H24.5711C24.7782 38.5215 25.1405 38.1642 25.1405 37.9448V36.641H25.138ZM15.6588 41.1563C15.5355 40.5426 15.5553 39.8944 15.469 39.2782C15.4591 39.2191 15.4419 39.1476 15.3753 39.1353L10.3819 39.187L10.1231 41.1563H15.6588ZM18.1407 42.6203C18.0619 42.1742 17.5196 41.7306 17.0858 41.6714C14.4338 41.807 11.5723 41.4718 8.94494 41.664C8.3337 41.7084 7.83829 42.0337 7.64357 42.6203H18.1407Z" fill="white"/>
<path d="M41.3006 38.8985C40.2974 37.9718 39.2154 37.1215 38.2049 36.2046L38.02 36.1307L37.6996 36.5127C38.582 37.3113 39.5284 38.0359 40.4083 38.8344C41.027 39.3939 42.4245 40.5647 42.6537 41.2991C43.1515 42.9037 41.5125 44.0152 40.1323 43.1822C39.0602 42.2209 37.9781 41.2646 36.9085 40.2985C36.2282 39.6872 35.6293 38.9454 34.8086 38.5165C34.848 38.3711 36.6669 36.6359 36.938 36.3845C37.1771 36.1652 38.1877 35.2187 38.4119 35.1966C38.5943 35.1768 38.9073 35.2951 39.1045 35.3025C41.5323 35.3937 43.5139 33.7177 43.398 31.2013C43.3758 30.7552 43.2452 29.6929 42.5896 30.0084C42.0794 30.24 40.8791 31.7065 40.4404 31.746C40.1841 31.7682 40.0682 31.6844 39.8957 31.5217C39.6246 31.2604 39.3436 30.9104 39.4668 30.5112C39.8045 30.0774 41.3474 28.9707 41.4139 28.5123C41.4805 28.0736 40.4453 27.8838 40.1249 27.8567C38.2986 27.7014 36.4698 28.7686 35.9571 30.5679C35.8117 31.0805 35.8659 31.8396 35.6022 32.2463C35.4814 32.4336 34.3624 33.3431 34.217 33.3209C33.6674 32.9734 32.8738 32.3202 32.7776 31.64C32.6938 31.0312 32.7604 30.5876 32.4671 29.9788C32.196 29.4218 31.3333 28.6084 30.6728 28.7785C30.0246 28.9461 30.0887 29.3035 30.515 29.7052C30.6235 29.7471 30.6457 29.5327 30.7763 29.4563C31.3111 29.1482 31.9446 30.0281 32.09 30.4816C32.2453 30.9597 32.2034 31.4108 32.2921 31.8717C32.4474 32.685 33.1843 33.2051 33.7906 33.6832L32.0407 35.1645C31.5083 34.6445 30.9784 33.8286 30.2291 33.6167C29.9901 33.5501 29.7288 33.56 29.5119 33.5058C27.3159 32.9586 26.7194 30.3584 27.6264 28.5L30.5175 30.7231L30.5471 30.8192C30.5471 30.9573 30.027 31.4009 29.8718 31.4231C29.4947 31.4773 29.4133 30.9696 29.2088 30.8784C28.9549 30.7675 28.8415 31.115 28.9401 31.3418C29.0017 31.4872 29.3961 31.8248 29.5464 31.8815C30.0837 32.0861 30.8453 31.6622 31.0795 31.1618C31.1707 30.9671 31.1731 30.8094 31.1263 30.6714C31.1238 30.659 31.1189 30.6467 31.1115 30.6344C31.0055 30.3978 30.7147 30.1464 30.5446 30.0133V30.0182L30.4436 29.9394C30.4263 29.927 30.4165 29.9196 30.4165 29.9196L27.7004 27.8049C27.0743 27.7039 26.6997 29.4809 26.6652 29.9295C26.5395 31.5759 27.4366 33.4737 29.0978 33.9864C29.4109 34.0825 29.6376 34.0579 29.926 34.1121C30.6605 34.2501 31.0869 35.0043 31.6266 35.4627L26.9191 39.5344C25.0829 41.1242 26.0786 44.0522 28.6641 43.6973C29.194 43.6234 29.7066 43.1772 30.101 42.8445C31.528 41.6393 32.9132 40.0175 34.3624 38.8985C34.4512 38.8295 34.53 38.7531 34.6459 38.7359C34.6902 38.7383 34.8233 39.0957 34.9022 39.1869C35.5603 39.9214 36.662 40.752 37.4187 41.4421C38.1778 42.1347 39.4939 43.6431 40.4305 43.9019C41.6678 44.2469 42.979 43.6209 43.2551 42.3171C43.5804 40.784 42.2988 39.8203 41.3006 38.8985ZM29.2309 42.8642C27.3849 43.9659 25.7212 41.9671 26.956 40.2714C29.8373 37.5947 32.9255 35.1645 35.9546 32.6628C36.5831 31.3615 36.2036 30.1981 37.4877 29.1704C38.3479 28.4778 39.6887 28.1894 40.7238 28.5912L39.0429 30.2154C38.9591 30.3559 38.8852 30.6615 38.8802 30.8217C38.858 31.4625 39.8981 32.4016 40.5612 32.3104C40.958 32.2562 42.0227 31.0978 42.4146 30.7872C42.4738 30.7404 42.7104 30.5481 42.7621 30.595C43.2526 32.7245 41.6358 34.8416 39.42 34.7997C39.0429 34.7923 38.6609 34.6247 38.2764 34.6666C37.8697 34.711 36.9923 35.5934 36.6521 35.9064C34.1727 38.2158 31.7967 40.6435 29.2309 42.8642Z" fill="white"/>
<path d="M8.6598 2.59939C8.52424 2.68565 8.64254 3.90814 8.59571 4.15708C8.57353 4.26799 8.52424 4.31728 8.43058 4.37397C8.01897 4.38136 7.03063 5.03697 6.72501 5.01726C6.28629 4.99014 5.64794 4.03138 5.27084 4.13736C5.10817 4.18172 3.87828 5.50034 3.66385 5.72216C3.55048 6.05736 4.72121 6.58727 4.70889 7.0876L3.94976 8.92873C3.62442 9.15055 2.79874 8.95338 2.39453 9.02978C2.29102 9.0495 2.21708 9.09633 2.18257 9.19985C2.25405 9.68046 2.03222 11.2234 2.20229 11.5734C2.35263 11.8839 3.6047 11.5315 3.95222 11.7952C4.07792 11.8913 4.33672 12.68 4.43038 12.9068C4.55361 13.2074 4.77789 13.2962 4.6029 13.7176C4.49692 13.974 3.8561 14.4644 3.72794 14.7553C3.6959 14.8268 3.67618 14.8711 3.72794 14.9426C4.08778 15.1792 5.15007 16.3795 5.46062 16.4608C5.77117 16.5422 6.60671 15.3369 6.87289 15.5218C6.97641 15.5957 6.89754 16.0813 6.81867 16.1897C6.78663 16.2341 6.06694 16.8527 5.99546 16.8946C5.62083 17.1115 5.34724 17.1091 4.99972 16.8527C4.59058 16.552 3.87582 15.9112 3.50365 15.5489C2.60896 14.6813 3.53816 14.2155 4.06807 13.5032L3.55787 12.2832C2.93923 12.1747 1.7685 12.5937 1.65759 11.6695C1.55654 10.829 1.71181 9.75933 1.68717 8.89669C2.04701 8.12524 2.9836 8.62557 3.60223 8.39389L4.06807 7.09746C3.57266 6.52812 2.62868 5.98588 3.3533 5.15281C3.62689 4.8398 4.48953 3.99687 4.8124 3.74794C5.62329 3.12437 6.12362 4.08313 6.78169 4.42573L8.01651 3.93032C8.08059 3.85638 8.04855 2.64129 8.08799 2.44164C8.11756 2.28144 8.30242 2.17299 8.40594 2.05962L11.4622 2.05469C12.0709 2.242 11.8319 3.44478 11.9058 3.93279C12.3199 3.93279 12.6501 4.21376 13.0174 4.35918C13.7297 4.01659 14.1758 3.09972 15.0212 3.77751C15.5388 4.19158 16.0637 4.82994 16.5764 5.27605C16.9979 6.04257 16.2018 6.45418 15.8469 7.02106C16.0638 7.40062 16.256 7.81715 16.293 8.26326L15.7261 8.25833C15.768 7.90588 15.2282 7.25027 15.211 7.01859C15.1765 6.53058 16.3497 6.02285 16.0416 5.49294C15.6571 5.29577 14.8191 4.17679 14.4765 4.1275C14.0378 4.06342 13.6114 4.92853 13.1431 4.96057C12.8128 4.98275 12.5195 4.73135 12.2213 4.60811C12.0192 4.52431 11.6396 4.47009 11.4967 4.37643C11.1171 4.12996 11.5336 2.60185 11.1713 2.60185H8.65733L8.6598 2.59939Z" fill="white"/>
<path d="M13.623 8.19842L13.1252 8.25018C12.6199 7.3555 11.6266 6.77383 10.6334 6.57419C7.85071 6.01717 5.4501 8.76777 6.44583 11.4617C6.66273 12.0458 7.15567 12.3367 6.84511 13.0342C3.80861 9.86949 7.11623 4.90559 11.2347 6.16259C12.1763 6.44849 13.347 7.21501 13.6206 8.19842H13.623Z" fill="white"/>
<path d="M23.876 20.8527C23.8439 20.8034 23.8538 20.5865 23.876 20.5224C23.9548 20.2981 27.5706 18.563 28.0635 18.3165L23.9277 16.0589C23.6665 15.1814 24.6425 15.8025 25.0122 15.9923C26.3308 16.6652 27.6248 17.4169 28.9237 18.1267C29.0149 18.3116 28.9138 18.4447 28.7437 18.5211L24.0929 20.9242L23.8735 20.8552L23.876 20.8527Z" fill="white"/>
<path d="M18.7585 16.0729L14.64 18.2838L18.7758 20.4478C18.9631 20.7854 18.7955 21.0541 18.411 20.8766L13.8242 18.4021L13.8563 18.057L18.4578 15.6096L18.6674 15.5898C18.8818 15.681 18.8793 15.8979 18.761 16.0729H18.7585Z" fill="white"/>
<path d="M22.3844 14.2502C22.9734 14.2379 22.6801 14.8565 22.5766 15.209C21.9333 17.4099 21.1003 19.5567 20.4816 21.7675C20.4176 21.9474 20.3091 22.12 20.0947 22.0583C19.7964 21.9745 19.969 21.5605 20.0183 21.3682C20.5852 19.0859 21.6548 16.7716 22.2094 14.4597L22.3844 14.2502Z" fill="white"/>
<path d="M32.8292 33.8965C32.5063 33.9803 32.4915 34.1553 32.3584 34.4117C32.0479 34.2539 31.7965 33.9902 32.0429 33.6501C32.3683 33.2015 32.9475 33.692 32.8292 33.8965Z" fill="white"/>
<path d="M36.781 28.3047C36.638 28.6424 36.3743 28.9874 35.9824 28.7533L36.0144 28.3318L36.781 28.3047Z" fill="white"/>
<path d="M23.7539 2.90821C23.9254 2.90821 24.0645 2.76917 24.0645 2.59766C24.0645 2.42615 23.9254 2.28711 23.7539 2.28711C23.5824 2.28711 23.4434 2.42615 23.4434 2.59766C23.4434 2.76917 23.5824 2.90821 23.7539 2.90821Z" fill="white"/>
<path d="M2.16881 22.7694V34.5408H23.5476V32.7909L23.6486 32.7022L24.0578 32.7589V34.7627C24.0578 34.8391 23.836 35.0979 23.7103 35.051L1.85086 35.0165L1.6882 34.7972C1.66601 30.9128 1.58714 26.9989 1.73009 23.1194C1.73995 22.8754 1.59946 22.7202 1.70791 22.4688C1.72763 22.4219 1.85825 22.2617 1.8829 22.2617H6.65456C6.82216 22.2617 6.82216 22.7719 6.65456 22.7719H2.16881V22.7694Z" fill="white"/>
<path d="M36.7509 21.2411C36.428 21.145 36.6523 19.9003 36.7361 19.6366C36.9678 18.8972 37.6628 18.1874 38.4368 18.0592C38.4861 17.8867 38.3259 17.9384 38.2421 17.8423C36.6499 16.0012 38.7843 13.4699 40.7462 14.6357C42.087 15.4318 42.0796 17.0092 41.0444 18.0592C42.0722 18.2786 42.7968 19.2201 42.888 20.2553C42.9151 20.5535 42.9521 21.0193 42.7303 21.2411H36.7484H36.7509ZM41.2786 16.43C41.2786 15.5773 40.5884 14.8871 39.7357 14.8871C38.8829 14.8871 38.1928 15.5773 38.1928 16.43C38.1928 17.2828 38.8829 17.9729 39.7357 17.9729C40.5884 17.9729 41.2786 17.2828 41.2786 16.43ZM42.3162 20.7334C42.4518 18.7 40.9261 18.3205 39.2279 18.4412C37.9069 18.5349 37.0146 19.3581 37.1625 20.7334H42.3162Z" fill="white"/>
<path d="M10.1695 10.376C10.5343 10.2971 12.7402 10.3045 13.142 10.3661C13.2405 10.3809 13.3317 10.4129 13.4007 10.4869C13.4574 10.6003 13.4698 10.8147 13.3268 10.8615C12.3828 10.8911 11.2811 11.0291 10.3445 10.933C9.82694 10.8812 9.76779 10.4622 10.1671 10.3735L10.1695 10.376Z" fill="white"/>
<path d="M32.3048 11.0686C32.5389 11.0686 32.7287 10.8788 32.7287 10.6446C32.7287 10.4105 32.5389 10.2207 32.3048 10.2207C32.0707 10.2207 31.8809 10.4105 31.8809 10.6446C31.8809 10.8788 32.0707 11.0686 32.3048 11.0686Z" fill="white"/>
<path d="M30.3946 11.0686C30.6288 11.0686 30.8186 10.8788 30.8186 10.6446C30.8186 10.4105 30.6288 10.2207 30.3946 10.2207C30.1605 10.2207 29.9707 10.4105 29.9707 10.6446C29.9707 10.8788 30.1605 11.0686 30.3946 11.0686Z" fill="white"/>
<path d="M28.5518 11.0587C28.7832 11.0587 28.9708 10.8711 28.9708 10.6397C28.9708 10.4083 28.7832 10.2207 28.5518 10.2207C28.3204 10.2207 28.1328 10.4083 28.1328 10.6397C28.1328 10.8711 28.3204 11.0587 28.5518 11.0587Z" fill="white"/>
<path d="M35.7496 33.8523C36.558 33.6945 36.8562 34.8776 36.245 35.3656L30.9286 40.1668C30.2065 40.5932 29.4153 40.0781 29.61 39.2278C29.6692 38.9665 31.2491 37.5887 31.567 37.3053C32.6244 36.3638 33.8715 35.2004 34.9732 34.3501C35.131 34.2293 35.5845 33.8868 35.7521 33.8523H35.7496ZM35.8728 34.2984C35.7052 34.2984 35.3454 34.636 35.1901 34.7617C33.7162 35.9497 31.9761 37.4655 30.6082 38.7693C30.3642 39.001 29.8442 39.3781 30.0956 39.7281C30.2928 39.9253 30.485 39.9031 30.7044 39.7552C32.1832 38.3503 33.7754 37.0564 35.2542 35.6515C35.5647 35.3582 36.6048 34.567 35.8704 34.2959L35.8728 34.2984Z" fill="white"/>
<path d="M28.0484 40.5339C29.1846 40.2997 29.4804 41.993 28.4649 42.2247C27.1882 42.5155 27.0921 40.7311 28.0484 40.5339ZM28.6892 41.3867C28.6892 41.1476 28.4945 40.9529 28.2554 40.9529C28.0163 40.9529 27.8216 41.1476 27.8216 41.3867C27.8216 41.6257 28.0163 41.8205 28.2554 41.8205C28.4945 41.8205 28.6892 41.6257 28.6892 41.3867Z" fill="white"/>
<path d="M20.5909 4.55093L20.0314 4.3439L20.0018 4.42523L20.024 4.33651L19.8169 3.77702C19.7898 3.70308 19.7208 3.65625 19.6419 3.65625C19.5631 3.65625 19.4941 3.70308 19.467 3.77702L19.2525 4.3439L18.693 4.55093C18.6191 4.57805 18.5723 4.64706 18.5723 4.72593C18.5723 4.8048 18.6191 4.87381 18.693 4.90092L19.2599 5.11535L19.467 5.67484C19.4941 5.74878 19.5631 5.79561 19.6419 5.79561C19.7208 5.79561 19.7898 5.74878 19.8169 5.67484L20.0314 5.10796L20.5909 4.90092C20.6648 4.87381 20.7116 4.8048 20.7116 4.72593C20.7116 4.64706 20.6648 4.57805 20.5909 4.55093ZM20.5317 4.73825L19.9722 4.94529C19.9205 4.965 19.881 5.00444 19.8613 5.0562L19.6543 5.61568L19.7356 5.64526L19.6296 5.61568L19.4226 5.0562C19.4029 5.00444 19.3634 4.965 19.3117 4.94529L18.7522 4.73825V4.71361L19.3117 4.50657C19.3634 4.48685 19.4029 4.44742 19.4226 4.39566L19.6296 3.83617H19.6543L19.8613 4.39566C19.881 4.44742 19.9205 4.48685 19.9722 4.50657L20.5317 4.71361L20.5613 4.63227L20.5317 4.73825Z" fill="white"/>
<path d="M23.0446 1.47882L22.1228 1.13869L22.0735 1.27178L22.1105 1.1239L21.7704 0.202105C21.726 0.0813349 21.6127 0 21.482 0C21.3514 0 21.238 0.0788702 21.1937 0.202105L20.8387 1.13623L19.9169 1.47635C19.7962 1.52072 19.7148 1.63409 19.7148 1.76472C19.7148 1.89535 19.7937 2.00873 19.9169 2.05309L20.8511 2.40801L21.1912 3.32981C21.2356 3.45058 21.3489 3.52945 21.4796 3.52945C21.6102 3.52945 21.7236 3.45058 21.7679 3.32981L22.1228 2.39569L23.0446 2.05556C23.1654 2.01119 23.2443 1.89782 23.2443 1.76719C23.2443 1.63656 23.1654 1.52318 23.0446 1.47882ZM22.9461 1.78691L22.0243 2.12703C21.9405 2.15907 21.8739 2.22562 21.8419 2.30942L21.5017 3.23122L21.6348 3.28051L21.4598 3.23122L21.1197 2.30942C21.0877 2.22562 21.0211 2.15907 20.9373 2.12703L20.0155 1.78691V1.74747L20.9373 1.40734C21.0211 1.3753 21.0877 1.30875 21.1197 1.22496L21.4598 0.303157H21.4993L21.8394 1.22496C21.8715 1.30875 21.938 1.3753 22.0218 1.40734L22.9436 1.74747L22.9929 1.61438L22.9436 1.78937L22.9461 1.78691Z" fill="white"/>
<path d="M37.4182 2.58751C37.5433 2.57319 37.6615 2.65832 37.6859 2.78367L38.1786 5.19036L38.1826 5.2166C38.1889 5.27698 38.1725 5.34018 38.1304 5.39254L38.1309 5.39279C38.0458 5.50288 37.8884 5.51676 37.7845 5.4337L37.2586 5.01971C37.1738 5.12886 37.074 5.23857 36.9614 5.34344C36.5786 5.70313 36.0426 6.0327 35.4373 6.17889C34.8246 6.32562 34.1407 6.28486 33.4833 5.89944C33.2431 5.75992 33.0096 5.57493 32.7853 5.33791L32.7856 5.33767C32.7201 5.27261 32.6891 5.16985 32.7281 5.07339C32.7284 5.07255 32.7287 5.07181 32.729 5.07098C32.7292 5.07065 32.7291 5.0701 32.7293 5.06977C32.7763 4.95303 32.9029 4.89059 33.0229 4.92319L33.0472 4.93114L33.0477 4.93138C33.8788 5.25618 34.4778 5.18892 34.9169 4.9682C35.2646 4.79334 35.5321 4.5125 35.7451 4.2182L35.0151 3.96211L35.0134 3.96162L35.0118 3.9609C34.955 3.93906 34.8945 3.89254 34.8671 3.816C34.8664 3.81426 34.8658 3.8127 34.8652 3.81095C34.8198 3.68436 34.884 3.54508 35.0093 3.49685L35.0096 3.4966L37.3561 2.60195L37.3628 2.5993L37.3701 2.59762L37.3898 2.59256L37.3929 2.59184L37.4182 2.58751ZM37.4375 2.8347L35.0974 3.72695L35.097 3.72743L35.0972 3.72767L35.0979 3.7296C35.0983 3.72981 35.0987 3.7301 35.0991 3.73032L36.6641 4.27958H36.0029C35.7699 4.61839 35.4582 4.97192 35.0276 5.18844C34.5155 5.44582 33.8427 5.50637 32.9586 5.161L32.9584 5.16124L32.9579 5.16148L32.9589 5.16316L32.9642 5.16846C33.1475 5.3622 33.3353 5.51646 33.5255 5.63685L33.6071 5.68643L33.6075 5.68667C34.2021 6.03543 34.8192 6.07354 35.3795 5.9394C35.9374 5.80467 36.4365 5.49859 36.7931 5.1634L36.7934 5.16316C36.9302 5.03578 37.0452 4.90178 37.1335 4.77396L37.2081 4.66613L37.9371 5.24019L37.4444 2.83301L37.4375 2.8347Z" fill="white"/>
<path d="M38.4372 6.00131C38.561 6.00131 38.6615 5.90089 38.6615 5.77702C38.6615 5.65315 38.561 5.55273 38.4372 5.55273C38.3133 5.55273 38.2129 5.65315 38.2129 5.77702C38.2129 5.90089 38.3133 6.00131 38.4372 6.00131Z" fill="white"/>
<path d="M20.4284 7.97114C20.4713 7.89377 20.5689 7.86593 20.6463 7.9088C20.7236 7.95169 20.7517 8.04924 20.7088 8.12662C20.6533 8.22687 20.6116 8.30694 20.5842 8.36154C20.5705 8.38879 20.5603 8.40974 20.5536 8.42364C20.5503 8.43056 20.5477 8.43568 20.5461 8.43904C20.5453 8.44073 20.5448 8.44214 20.5444 8.4429L20.5442 8.44362C20.5072 8.52398 20.412 8.55925 20.3317 8.52232C20.2513 8.48535 20.216 8.38993 20.253 8.30955H20.2532L20.2534 8.30907C20.2536 8.30874 20.2537 8.30817 20.2539 8.30763C20.2545 8.30648 20.2554 8.30487 20.2563 8.30281C20.2583 8.29864 20.261 8.29251 20.2648 8.28476C20.2722 8.26919 20.2834 8.24662 20.298 8.21761C20.3272 8.15946 20.3706 8.07544 20.4284 7.97114Z" fill="white"/>
<path d="M20.9901 7.07677C21.0412 7.00455 21.1413 6.98743 21.2135 7.0385C21.2858 7.08958 21.3029 7.18962 21.2518 7.26186C21.1841 7.35757 21.1214 7.44979 21.0636 7.5377C21.015 7.61163 20.9156 7.63228 20.8416 7.58367C20.7678 7.53505 20.7473 7.43567 20.7959 7.36175C20.8556 7.27094 20.9203 7.17557 20.9901 7.07677ZM21.8663 6.00135C21.9268 5.93687 22.0282 5.93363 22.0928 5.99413C22.1573 6.05466 22.1605 6.1561 22.1 6.22062C21.9402 6.39104 21.7929 6.56069 21.6583 6.72608C21.6025 6.7947 21.5016 6.80504 21.433 6.74919C21.3644 6.69333 21.3541 6.59251 21.4099 6.5239C21.5489 6.35312 21.701 6.17762 21.8663 6.00135ZM22.8907 5.06217C22.9604 5.00773 23.061 5.02014 23.1155 5.08985C23.1699 5.15957 23.1575 5.2602 23.0878 5.31466C22.9076 5.45545 22.7373 5.60073 22.5768 5.74814C22.5116 5.80799 22.4104 5.80367 22.3505 5.73852C22.2907 5.67336 22.295 5.57211 22.3602 5.51226C22.5266 5.35943 22.7033 5.20853 22.8907 5.06217ZM24.0571 4.30302C24.1352 4.26163 24.2323 4.29151 24.2737 4.36969C24.315 4.44787 24.2852 4.54492 24.207 4.58632C24.0068 4.69237 23.815 4.80599 23.6318 4.92546C23.5576 4.97374 23.4584 4.95285 23.4101 4.87876C23.3618 4.80466 23.3827 4.70542 23.4568 4.65708C23.6477 4.53256 23.8478 4.41383 24.0571 4.30302ZM31.2213 4.48378C31.2574 4.40303 31.3524 4.36677 31.4331 4.40291C31.5379 4.44984 31.6435 4.49884 31.7499 4.54973C31.8297 4.58792 31.8634 4.68365 31.8252 4.76347C31.787 4.8432 31.6915 4.87691 31.6117 4.83881C31.5077 4.78906 31.4045 4.74117 31.3022 4.69535C31.2214 4.65919 31.1852 4.56452 31.2213 4.48378ZM29.9427 4.01371C29.9694 3.92937 30.0594 3.88258 30.1437 3.90925C30.3573 3.97686 30.5746 4.05283 30.7955 4.13767C30.8781 4.1694 30.9192 4.26208 30.8875 4.34466C30.8557 4.42725 30.763 4.46857 30.6805 4.43685C30.4655 4.35427 30.2543 4.2803 30.047 4.21469C29.9627 4.18795 29.9161 4.09802 29.9427 4.01371ZM25.3453 3.77181C25.4299 3.74621 25.5194 3.79399 25.545 3.87868C25.5706 3.96337 25.5226 4.05286 25.4379 4.07846C25.2212 4.14398 25.012 4.21904 24.8104 4.3023C24.7287 4.33608 24.635 4.29719 24.6013 4.21541C24.5675 4.13363 24.6064 4.04003 24.6882 4.00625C24.8992 3.91909 25.1182 3.84045 25.3453 3.77181ZM28.7949 3.58167C29.0174 3.61876 29.2444 3.66546 29.476 3.72199C29.562 3.74297 29.6147 3.82957 29.5937 3.91551C29.5728 4.00143 29.4861 4.05413 29.4002 4.03321C29.1761 3.97851 28.9567 3.93371 28.7422 3.89794C28.6549 3.88339 28.596 3.80081 28.6105 3.71357C28.625 3.62629 28.7076 3.56712 28.7949 3.58167ZM26.7146 3.50151C26.8026 3.49295 26.8809 3.55742 26.8895 3.64545C26.8981 3.73351 26.8337 3.81185 26.7456 3.82043C26.5186 3.84254 26.2983 3.87534 26.0847 3.91743C25.9979 3.93454 25.9135 3.87788 25.8964 3.79107C25.8794 3.7043 25.936 3.62019 26.0228 3.60309C26.2465 3.55901 26.4771 3.52464 26.7146 3.50151ZM27.4094 3.46685C27.6362 3.46598 27.8685 3.47494 28.1065 3.49502C28.1946 3.50245 28.26 3.58015 28.2526 3.66831C28.2451 3.75644 28.1677 3.82185 28.0795 3.81442C27.8508 3.79512 27.6279 3.78638 27.4106 3.78722C27.3222 3.78756 27.2502 3.71609 27.2499 3.62764C27.2495 3.53916 27.321 3.4672 27.4094 3.46685Z" fill="white"/>
<path d="M31.8509 4.7779C31.8905 4.69883 31.9868 4.66686 32.0659 4.70641C32.1768 4.76187 32.2883 4.82276 32.3973 4.88092C32.4754 4.92256 32.5049 5.01948 32.4633 5.09754C32.4216 5.17558 32.3247 5.20509 32.2466 5.16349C32.1339 5.10336 32.0284 5.04582 31.9224 4.99284C31.8434 4.95324 31.8114 4.85701 31.8509 4.7779Z" fill="white"/>
<path d="M19.1458 23.7969H11.9587C11.8035 23.7969 11.6777 23.9227 11.6777 24.0779C11.6777 24.233 11.8035 24.3588 11.9587 24.3588H19.1458C19.301 24.3588 19.4267 24.233 19.4267 24.0779C19.4267 23.9227 19.301 23.7969 19.1458 23.7969Z" fill="white"/>
<path d="M10.3571 24.3608C10.5123 24.3608 10.6381 24.235 10.6381 24.0798C10.6381 23.9246 10.5123 23.7988 10.3571 23.7988C10.202 23.7988 10.0762 23.9246 10.0762 24.0798C10.0762 24.235 10.202 24.3608 10.3571 24.3608Z" fill="white"/>
<path d="M19.1458 25.7461H11.9587C11.8035 25.7461 11.6777 25.8719 11.6777 26.0271C11.6777 26.1822 11.8035 26.308 11.9587 26.308H19.1458C19.301 26.308 19.4267 26.1822 19.4267 26.0271C19.4267 25.8719 19.301 25.7461 19.1458 25.7461Z" fill="white"/>
<path d="M10.3571 26.308C10.5123 26.308 10.6381 26.1822 10.6381 26.0271C10.6381 25.8719 10.5123 25.7461 10.3571 25.7461C10.202 25.7461 10.0762 25.8719 10.0762 26.0271C10.0762 26.1822 10.202 26.308 10.3571 26.308Z" fill="white"/>
<path d="M23.323 24.3594H30.5101C30.6652 24.3594 30.791 24.2336 30.791 24.0784C30.791 23.9232 30.6652 23.7974 30.5101 23.7974H23.323C23.1678 23.7974 23.042 23.9232 23.042 24.0784C23.042 24.2336 23.1678 24.3594 23.323 24.3594Z" fill="white"/>
<path d="M32.113 24.3588C32.2682 24.3588 32.394 24.233 32.394 24.0779C32.394 23.9227 32.2682 23.7969 32.113 23.7969C31.9578 23.7969 31.832 23.9227 31.832 24.0779C31.832 24.233 31.9578 24.3588 32.113 24.3588Z" fill="white"/>
<path d="M23.323 26.3027H30.5101C30.6652 26.3027 30.791 26.1769 30.791 26.0218C30.791 25.8666 30.6652 25.7408 30.5101 25.7408H23.323C23.1678 25.7408 23.042 25.8666 23.042 26.0218C23.042 26.1769 23.1678 26.3027 23.323 26.3027Z" fill="white"/>
<path d="M32.113 26.3061C32.2682 26.3061 32.394 26.1803 32.394 26.0251C32.394 25.8699 32.2682 25.7441 32.113 25.7441C31.9578 25.7441 31.832 25.8699 31.832 26.0251C31.832 26.1803 31.9578 26.3061 32.113 26.3061Z" fill="white"/>
<path d="M42.8537 22.2734H38.3088C38.1836 22.2734 38.082 22.375 38.082 22.5002V22.6086C38.082 22.7339 38.1836 22.8354 38.3088 22.8354H42.8537C42.9789 22.8354 43.0804 22.7339 43.0804 22.6086V22.5002C43.0804 22.375 42.9789 22.2734 42.8537 22.2734Z" fill="white"/>
<path d="M36.7595 22.8354C36.9147 22.8354 37.0405 22.7096 37.0405 22.5544C37.0405 22.3992 36.9147 22.2734 36.7595 22.2734C36.6043 22.2734 36.4785 22.3992 36.4785 22.5544C36.4785 22.7096 36.6043 22.8354 36.7595 22.8354Z" fill="white"/>
<path d="M42.8537 23.793H38.3088C38.1836 23.793 38.082 23.8945 38.082 24.0197V24.1282C38.082 24.2534 38.1836 24.3549 38.3088 24.3549H42.8537C42.9789 24.3549 43.0804 24.2534 43.0804 24.1282V24.0197C43.0804 23.8945 42.9789 23.793 42.8537 23.793Z" fill="white"/>
<path d="M36.7595 24.3569C36.9147 24.3569 37.0405 24.2311 37.0405 24.0759C37.0405 23.9207 36.9147 23.7949 36.7595 23.7949C36.6043 23.7949 36.4785 23.9207 36.4785 24.0759C36.4785 24.2311 36.6043 24.3569 36.7595 24.3569Z" fill="white"/>
<path d="M40.8678 11.2793H38.6323C38.4622 11.2793 38.3242 11.4172 38.3242 11.5874C38.3242 11.7575 38.4622 11.8955 38.6323 11.8955H40.8678C41.0379 11.8955 41.1759 11.7575 41.1759 11.5874C41.1759 11.4172 41.0379 11.2793 40.8678 11.2793Z" fill="white"/>
<path d="M38.1587 17.7409C38.1587 17.7409 38.2598 17.9406 38.4668 18.0959C38.6738 18.2511 38.4668 17.6202 38.4668 17.6202L38.3312 17.5117L38.1562 17.7409H38.1587Z" fill="white"/>
<path d="M35.2622 39.5596L34.4316 38.8448L34.5771 38.5762C34.5771 38.5762 34.72 38.6969 34.7397 38.6969C34.7594 38.6969 35.2622 39.5596 35.2622 39.5596Z" fill="white"/>
<path d="M35.6579 39.1107L34.7657 38.2949L34.5537 38.3171L34.3984 38.534L35.5273 39.3794L35.6579 39.1107Z" fill="white"/>
<path d="M36.8542 39.0437L36.0281 38.2176C35.9781 38.1675 35.8969 38.1675 35.8469 38.2176L35.8451 38.2193C35.7951 38.2694 35.7951 38.3505 35.8451 38.4006L36.6712 39.2267C36.7213 39.2767 36.8024 39.2767 36.8525 39.2267L36.8542 39.2249C36.9043 39.1749 36.9043 39.0937 36.8542 39.0437Z" fill="white"/>
<path d="M37.9208 40.0673L37.3143 39.4608C37.2691 39.4156 37.1957 39.4156 37.1505 39.4608L37.1313 39.48C37.0861 39.5252 37.0861 39.5986 37.1313 39.6438L37.7378 40.2503C37.7831 40.2955 37.8564 40.2955 37.9017 40.2503L37.9208 40.2311C37.9661 40.1859 37.9661 40.1126 37.9208 40.0673Z" fill="white"/>
<path d="M38.8633 41L38.3247 40.4614C38.2824 40.4191 38.2137 40.4191 38.1714 40.4614L38.1417 40.4911C38.0994 40.5334 38.0994 40.6021 38.1417 40.6444L38.6803 41.183C38.7226 41.2253 38.7913 41.2253 38.8336 41.183L38.8633 41.1533C38.9056 41.111 38.9056 41.0423 38.8633 41Z" fill="white"/>
<path d="M7.45117 9.4018V8.74372L8.20538 8.73633L8.12157 8.86449L7.57687 9.2761L7.56209 9.49792L7.45117 9.4018Z" fill="white"/>
<path d="M34.2559 8.70508H35.4463V10.3712L35.1259 9.25224L34.9065 9.09943L34.2559 9.02303V8.70508Z" fill="white"/>
<path d="M36.9762 36.9028C37.0299 36.8325 37.1305 36.819 37.2008 36.8727L37.1035 37L37.201 36.8729L37.2015 36.8732C37.2019 36.8735 37.2024 36.874 37.2032 36.8746C37.2047 36.8758 37.2071 36.8776 37.2102 36.8799C37.2162 36.8846 37.2253 36.8915 37.2371 36.9006C37.2607 36.9187 37.2952 36.9455 37.3397 36.98C37.4287 37.0492 37.5575 37.1498 37.7161 37.2754C38.0334 37.5265 38.4709 37.8779 38.9513 38.2791C39.9095 39.0792 41.0479 40.0847 41.7424 40.8879C41.8003 40.9549 41.793 41.0561 41.726 41.1139C41.6591 41.1718 41.5579 41.1645 41.5 41.0976C40.8242 40.316 39.7038 39.3251 38.7458 38.5251C38.2681 38.1261 37.833 37.7765 37.5173 37.5267C37.3595 37.4017 37.2316 37.3017 37.1433 37.233C37.0991 37.1987 37.0647 37.1722 37.0414 37.1543C37.0298 37.1454 37.0209 37.1386 37.015 37.1341C37.0121 37.1319 37.0099 37.1302 37.0085 37.129C37.0077 37.1285 37.0071 37.1279 37.0068 37.1276L37.0063 37.1273C36.9361 37.0736 36.9225 36.973 36.9762 36.9028Z" fill="white"/>
</svg>
