<svg width="45" height="42" viewBox="0 0 45 42" fill="none" xmlns="http://www.w3.org/2000/svg">
<path d="M30.8442 15.8203H6.26681V34.2528H32.7085V32.3187H33.2607V37.394C33.2607 37.4359 33.1675 37.5711 33.1069 37.5897L5.85202 37.6014L5.72852 37.4499L5.75182 11.9544L5.97086 11.7609L30.8442 11.747C30.8209 10.724 31.4058 9.71963 32.4731 9.54253L43.239 9.5332C44.2457 9.59845 44.9378 10.4607 45.0007 11.4324V29.9394C44.9121 31.0626 44.1921 31.7291 43.0992 31.9039C39.7809 31.6848 36.0874 32.1951 32.8133 31.9039C31.9092 31.8223 30.8442 31.0603 30.8442 30.0746V15.818V15.8203ZM44.3762 12.0219V11.0199C44.3762 10.9943 44.1688 10.6261 44.1292 10.5748C43.8728 10.2369 43.4371 10.0785 43.0293 10.0179H32.8809C31.7764 10.1274 31.315 10.9733 31.4641 12.0196H44.3738L44.3762 12.0219ZM30.8442 12.2923H6.26681V15.268H30.8442V12.2923ZM31.3895 12.5742V28.6601H44.3738V12.5742H31.3895ZM44.3762 29.2823H31.4664C31.2078 30.282 31.7437 31.2444 32.8133 31.3516H43.0992C43.5279 31.305 43.9194 31.1232 44.1594 30.755C44.1991 30.6945 44.3785 30.3123 44.3785 30.282V29.28L44.3762 29.2823ZM32.7085 34.7654H6.26681V37.1516H32.7085V34.7654Z" fill="white"/>
<path d="M18.9033 17.543V26.1114H8.26562V17.543H18.9033ZM17.7941 18.03H9.3026L13.6183 21.3413L17.7941 18.03ZM8.75032 18.3749V25.1397L13.1685 21.7911L8.75032 18.3749ZM18.4163 25.0721L18.3138 18.3772L14.0657 21.7934L18.4163 25.0721ZM9.23269 25.5545H18.0015L13.6066 22.1126L9.23502 25.5545H9.23269Z" fill="white"/>
<path d="M2.29506 14.0254C2.60499 14.0906 2.65393 14.6778 2.76112 14.9388C2.91725 15.3187 3.30175 15.9036 3.09202 16.2718C2.91026 16.5933 2.2904 17.0454 2.15525 17.3414C2.11097 17.4392 2.12029 17.5068 2.17389 17.5954L3.93791 19.2918L4.08006 19.3267L5.19626 18.3737C5.43861 18.9259 4.89099 19.5132 4.43892 19.7555C3.98685 19.9979 3.79809 19.8674 3.43457 19.5831C2.83103 19.1054 2.27176 18.334 1.67987 17.8167C1.2977 17.1013 2.29972 16.5048 2.65626 15.9921L2.05504 14.6103C1.36528 14.4402 0.141887 14.9435 0.0486756 13.9252C-0.0095813 13.2937 -0.0258913 11.7044 0.0579987 11.0985C0.190825 10.1501 1.40956 10.6791 2.02475 10.5463L2.66558 9.02925C2.30206 8.50028 1.46082 8.16472 1.57501 7.43534C1.6053 7.23727 2.40226 6.39371 2.60499 6.18631C2.91259 5.87173 3.45554 5.21692 3.89363 5.18896C4.43426 5.154 4.91895 5.98358 5.40831 6.15369L6.74123 5.662C6.90901 5.49655 6.74123 4.17295 6.83444 3.85604C6.87872 3.7069 7.12107 3.56009 7.27253 3.53446C7.83646 3.44591 9.56553 3.47154 10.1714 3.52747C11.1734 3.61835 10.5815 4.92097 10.7866 5.60374L12.038 6.15369C12.7277 5.90668 13.1402 4.78815 13.9954 5.36373C14.2727 5.55015 15.4704 6.75956 15.6942 7.04852C16.3909 7.95499 15.3423 8.28822 14.9694 9.01527L15.531 10.4927C16.3606 10.5789 17.6702 10.1594 17.6609 11.3991L17.1506 11.4038C17.0667 11.3805 17.1483 11.1125 16.864 11.0566C16.5098 10.9867 15.3213 11.1684 15.1209 10.9704C15.03 10.8795 14.8949 10.206 14.811 10.0033C14.7178 9.77261 14.324 9.12946 14.3426 8.95468C14.4405 8.59116 15.4145 7.89441 15.3726 7.58681C15.3586 7.49127 15.2677 7.40272 15.2095 7.32815C15.03 7.09279 13.9418 5.9929 13.7204 5.84842C13.6645 5.81114 13.6016 5.75987 13.5363 5.75055C13.2008 5.70395 12.5133 6.71995 12.1032 6.74558C11.6208 6.4776 10.9707 6.32846 10.5 6.1001C10.4091 6.05582 10.3392 5.98591 10.2739 5.91134V4.18461C10.2739 4.16596 10.1411 4.0378 10.0945 4.02848C9.30454 4.22422 8.23494 3.94226 7.47993 4.07975C7.40303 4.09373 7.35177 4.1147 7.30749 4.18228V5.83911C7.30749 6.12107 6.3847 6.28885 6.13303 6.39138C5.93729 6.47294 5.62736 6.75956 5.41997 6.75257C4.89565 6.73859 4.20822 5.64103 3.83538 5.74356C3.51147 5.83444 2.46051 7.27456 2.09 7.52856C2.0434 7.57982 2.06204 7.61245 2.09 7.66604C2.30905 8.09015 3.31805 8.51892 3.22018 9.13412C2.9522 9.43705 2.6982 10.7933 2.52576 10.9657C2.26943 11.2244 0.736107 10.8539 0.572988 11.1894L0.607944 14.0207C1.09497 14.0906 1.84998 13.9252 2.29972 14.0207L2.29506 14.0254Z" fill="white"/>
<path d="M5.22873 22.1731C5.30563 22.984 4.36186 23.3522 3.84454 23.8602C2.51628 25.1651 1.38843 27.2274 1.03656 29.0614C-0.60862 37.6601 8.69385 44.1196 16.2509 39.7201C16.6494 39.4894 18.1548 38.2217 18.3109 38.1914C18.3762 38.1797 18.9657 38.1238 18.8958 38.2916C15.1417 42.2344 9.05504 42.81 4.65081 39.5569C-0.620273 35.6654 -1.18187 27.9428 3.56724 23.3778C3.70938 23.2427 5.11687 22.0496 5.22406 22.1707L5.22873 22.1731Z" fill="white"/>
<path d="M36.0821 2.57333L35.8863 2.59896C34.3251 3.7874 32.857 5.64463 30.7924 5.92893C30.4708 5.9732 29.8603 5.98019 30.31 5.58405C32.5284 5.33238 34.0245 3.54971 35.6067 2.18417C35.3807 1.88823 33.88 1.08428 33.8776 0.802318L33.9918 0.636868L37.9929 0.00769417C38.2609 -0.0319205 38.4799 0.0799319 38.4333 0.378207C38.2096 0.860575 37.9114 3.75012 37.7133 3.94586C37.5875 4.0717 37.429 4.02742 37.2938 3.94586C37.1587 3.8643 36.392 2.9788 36.1893 2.76907C36.1357 2.71315 36.1077 2.64091 36.0821 2.571V2.57333ZM37.8857 0.5623L34.917 1.00971C35.8584 1.63423 36.5761 2.49876 37.401 3.25377L37.8857 0.5623Z" fill="white"/>
<path d="M13.1677 11.1253C13.0069 11.1067 12.7506 11.1742 12.6154 11.0927C12.5548 11.0554 12.0748 10.1046 11.893 9.88326C9.38331 6.83759 4.4804 8.87192 4.81596 12.8171C4.8882 13.656 5.49175 14.2875 5.22842 15.131C3.60189 13.1666 4.12853 10.1722 6.17452 8.72278C8.75646 6.89584 12.2216 8.19847 13.17 11.1253H13.1677Z" fill="white"/>
<path d="M5.22918 37.2223C5.16393 37.2875 4.31804 36.3578 4.23415 36.2506C1.56365 32.8647 1.88523 27.5936 5.22918 24.7949C5.2082 25.007 5.28277 25.2889 5.19422 25.4847C5.0847 25.7224 4.48115 26.3282 4.27609 26.6382C2.17418 29.8283 2.68218 33.8667 5.24549 36.6187L5.22684 37.2223H5.22918Z" fill="white"/>
<path d="M15.6535 38.1898L14.7121 38.7327C12.3049 39.8117 9.49462 39.8023 7.13638 38.5953L6.40234 38.1199C6.64236 38.1991 7.1457 38.0267 7.31814 38.0639C7.43699 38.0896 7.87042 38.3622 8.05917 38.4298C10.2426 39.2151 11.769 39.1802 13.9618 38.4671C14.1039 38.4205 14.507 38.1898 14.5816 38.1898H15.6512H15.6535Z" fill="white"/>
<path d="M18.7545 29.3516H10.4727V29.8339H18.7545V29.3516Z" fill="white"/>
<path d="M18.7506 27.625H10.541V28.1074H18.7506V27.625Z" fill="white"/>
<path d="M18.6298 31.0781H10.5391V31.5652H18.6298V31.0781Z" fill="white"/>
<path d="M8.99922 31.6977C9.22315 31.6977 9.40469 31.5161 9.40469 31.2922C9.40469 31.0683 9.22315 30.8867 8.99922 30.8867C8.77529 30.8867 8.59375 31.0683 8.59375 31.2922C8.59375 31.5161 8.77529 31.6977 8.99922 31.6977Z" fill="white"/>
<path d="M9.00628 28.2606C9.22764 28.2606 9.40708 28.0812 9.40708 27.8598C9.40708 27.6384 9.22764 27.459 9.00628 27.459C8.78492 27.459 8.60547 27.6384 8.60547 27.8598C8.60547 28.0812 8.78492 28.2606 9.00628 28.2606Z" fill="white"/>
<path d="M9.00905 29.9849C9.22655 29.9849 9.40287 29.8086 9.40287 29.5911C9.40287 29.3736 9.22655 29.1973 9.00905 29.1973C8.79155 29.1973 8.61523 29.3736 8.61523 29.5911C8.61523 29.8086 8.79155 29.9849 9.00905 29.9849Z" fill="white"/>
<path d="M18.8755 3.25875C19.017 3.25875 19.1318 3.14399 19.1318 3.00242C19.1318 2.86086 19.017 2.74609 18.8755 2.74609C18.7339 2.74609 18.6191 2.86086 18.6191 3.00242C18.6191 3.14399 18.7339 3.25875 18.8755 3.25875Z" fill="white"/>
<path d="M33.9846 22.6547C33.917 22.6361 33.8285 22.4916 33.8145 22.4124C33.7656 22.1607 33.7865 21.3148 33.8145 21.0352C33.9357 19.8234 35.1008 18.6653 36.2986 18.5138C36.3848 18.4323 35.9537 18.0827 35.8861 17.9942C34.5322 16.2325 35.6391 13.7694 37.8482 13.6785C40.309 13.576 41.4508 16.3979 39.8872 18.2039C39.7893 18.3157 39.5819 18.3344 39.6122 18.5138C40.8706 18.7189 41.9984 19.8933 42.101 21.1703C42.1219 21.4476 42.1942 22.6571 41.8563 22.6571H33.9869L33.9846 22.6547ZM40.0363 16.3327C40.0363 15.1839 39.1042 14.2517 37.9554 14.2517C36.8066 14.2517 35.8745 15.1839 35.8745 16.3327C35.8745 17.4815 36.8066 18.4136 37.9554 18.4136C39.1042 18.4136 40.0363 17.4815 40.0363 16.3327ZM41.544 22.0325C41.7165 19.9702 40.3789 19.0428 38.4751 18.9216C36.273 18.7841 34.1407 19.3993 34.3645 22.0325H41.544Z" fill="white"/>
<path d="M42.4492 24.2422H35.6191V24.7246H42.4492V24.2422Z" fill="white"/>
<path d="M34.1359 24.9164C34.3599 24.9164 34.5414 24.7349 34.5414 24.5109C34.5414 24.287 34.3599 24.1055 34.1359 24.1055C33.912 24.1055 33.7305 24.287 33.7305 24.5109C33.7305 24.7349 33.912 24.9164 34.1359 24.9164Z" fill="white"/>
<path d="M42.4492 26.2852H35.6191V26.7675H42.4492V26.2852Z" fill="white"/>
<path d="M34.1359 26.9594C34.3599 26.9594 34.5414 26.7778 34.5414 26.5539C34.5414 26.33 34.3599 26.1484 34.1359 26.1484C33.912 26.1484 33.7305 26.33 33.7305 26.5539C33.7305 26.7778 33.912 26.9594 34.1359 26.9594Z" fill="white"/>
<path d="M8.09625 13.543H11.2724C11.4542 13.543 11.4542 14.0952 11.2724 14.0952H8.09625C7.92148 14.0137 7.97508 13.543 8.09625 13.543Z" fill="white"/>
<path d="M25.3341 14.2835C25.5812 14.2835 25.7815 14.0832 25.7815 13.8361C25.7815 13.589 25.5812 13.3887 25.3341 13.3887C25.087 13.3887 24.8867 13.589 24.8867 13.8361C24.8867 14.0832 25.087 14.2835 25.3341 14.2835Z" fill="white"/>
<path d="M28.8924 13.491C29.3095 13.9081 28.5895 14.6631 28.2143 14.1364C27.8391 13.6098 28.5452 13.1437 28.8924 13.491Z" fill="white"/>
<path d="M26.9447 14.2742C27.1892 14.2742 27.3875 14.0759 27.3875 13.8314C27.3875 13.5869 27.1892 13.3887 26.9447 13.3887C26.7002 13.3887 26.502 13.5869 26.502 13.8314C26.502 14.0759 26.7002 14.2742 26.9447 14.2742Z" fill="white"/>
<path d="M35.453 2.94717C35.453 2.94717 35.7467 2.5953 36.1917 2.7724C36.6368 2.9495 36.278 2.37858 36.278 2.37858L35.763 2.1875L35.2363 2.826L35.453 2.94484V2.94717Z" fill="white"/>
<path d="M33.8766 0.804875C33.8766 0.804875 33.8487 0.634766 34.0235 0.634766C34.1982 0.634766 34.0864 0.856141 34.0864 0.856141L33.8766 0.807206V0.804875Z" fill="white"/>
<path d="M5.74805 12.0157V11.7617H6.03234V12.0623" fill="white"/>
<path d="M39.758 10.7227H36.1484V11.3215H39.758V10.7227Z" fill="white"/>
<path d="M42.5556 10.0208C42.5556 10.0208 44.1192 10.0371 44.3732 11.1137C44.6272 12.1902 44.5363 10.8713 44.5363 10.8713L44.0726 10.072L42.728 9.75977H41.7656L42.5533 10.0208H42.5556Z" fill="white"/>
<path d="M39.3113 30.0879H35.8672V30.6239H39.3113V30.0879Z" fill="white"/>
<path d="M43.0957 31.3533C43.0957 31.3533 44.3727 31.0271 44.3727 29.8433C44.3727 28.6596 44.678 29.6872 44.678 29.6872V30.7615L43.7249 31.4536L43.0957 31.626V31.351V31.3533Z" fill="white"/>
<path d="M29.3168 18.8574H20.1309V19.3398H29.3168V18.8574Z" fill="white"/>
<path d="M28.3567 20.625H20.1309V21.1074H28.3567V20.625Z" fill="white"/>
<path d="M26.8957 22.3496H20.1309V22.832H26.8957V22.3496Z" fill="white"/>
<path d="M23.7777 24.1758H20.1309V24.6582H23.7777V24.1758Z" fill="white"/>
<path d="M18.0827 4.57632C18.1732 4.32853 18.511 4.32674 18.6177 4.55265L18.6272 4.5754L18.6275 4.57632L18.9486 5.44402C18.9504 5.44844 18.9528 5.45181 18.9547 5.45381L18.9561 5.45518L18.9602 5.45654L19.8295 5.77809H19.8292C20.0852 5.87148 20.0789 6.22841 19.8304 6.32266L19.8295 6.32289L18.9615 6.64398C18.9572 6.64577 18.954 6.64819 18.952 6.65013C18.9501 6.65201 18.9502 6.65268 18.9506 6.65149L18.9493 6.65559L18.6277 7.52375C18.5347 7.7805 18.1775 7.77452 18.0831 7.5258L18.0827 7.52489L17.7616 6.65695C17.7598 6.65266 17.7576 6.64935 17.7557 6.64739C17.7538 6.64545 17.7531 6.64561 17.7543 6.64603L17.7502 6.64466L16.8818 6.32311C16.6252 6.23009 16.6313 5.87287 16.88 5.77855L16.8809 5.77809L17.7486 5.457C17.753 5.4552 17.7564 5.45303 17.7584 5.45108C17.7603 5.44919 17.7602 5.4485 17.7598 5.44971L17.7611 5.44562L18.0827 4.57632ZM18.343 4.66006C18.3415 4.66105 18.3389 4.66315 18.3366 4.66939L18.3362 4.6703L18.016 5.53505C17.9872 5.62132 17.9189 5.68102 17.846 5.70937L17.844 5.71005L16.9756 6.03115L16.9758 6.03137C16.9691 6.03394 16.9665 6.03696 16.9651 6.03911C16.9632 6.04197 16.9617 6.04623 16.9617 6.0514C16.9617 6.05657 16.9632 6.06051 16.9646 6.06278C16.9651 6.06354 16.9659 6.06461 16.9674 6.06574L16.974 6.06915L16.9749 6.06938L17.8396 6.38956C17.8403 6.38979 17.8412 6.39001 17.8419 6.39024L17.844 6.39116H17.8437C17.9172 6.41693 17.9709 6.47144 18.0019 6.5327L18.014 6.55978L18.0146 6.56183L18.336 7.42999L18.3398 7.43728C18.3412 7.43901 18.3426 7.43997 18.3437 7.44069C18.3466 7.44255 18.3508 7.44409 18.356 7.4441C18.3611 7.4441 18.3651 7.44263 18.3674 7.44115C18.3689 7.44015 18.3715 7.43806 18.3737 7.43182L18.374 7.4309L18.6957 6.56183C18.7253 6.47781 18.7926 6.41973 18.8644 6.39184L18.8664 6.39093L19.7355 6.06938C19.7415 6.0669 19.7439 6.06414 19.7453 6.06209C19.7471 6.05924 19.7487 6.05497 19.7487 6.04981C19.7487 6.04466 19.7472 6.0407 19.7457 6.03843C19.7447 6.03692 19.7426 6.03432 19.7364 6.03206L19.7355 6.0316L18.8705 5.71142C18.8698 5.71116 18.869 5.71099 18.8682 5.71073L18.8664 5.71005V5.70982C18.7824 5.68027 18.7243 5.61313 18.6964 5.54142L18.6955 5.53938V5.53915L18.374 4.6703H18.3737C18.3713 4.66433 18.3687 4.66185 18.3667 4.66051C18.3638 4.65865 18.3596 4.65712 18.3544 4.6571C18.3492 4.6571 18.3453 4.65858 18.343 4.66006Z" fill="white"/>
<path d="M20.4557 2.45522C20.5463 2.20744 20.884 2.20565 20.9907 2.43155L21.0003 2.45431L21.0005 2.45522L21.3216 3.32293C21.3234 3.32735 21.3258 3.33072 21.3278 3.33272L21.3291 3.33408L21.3332 3.33545L22.2025 3.657H22.2023C22.4583 3.75038 22.4519 4.10731 22.2034 4.20156L22.2025 4.20179L21.3346 4.52289C21.3303 4.52467 21.327 4.5271 21.325 4.52903C21.3231 4.53092 21.3233 4.53159 21.3237 4.5304L21.3223 4.53449L21.0007 5.40266C20.9078 5.65941 20.5505 5.65342 20.4562 5.40471L20.4557 5.4038L20.1346 4.53586C20.1328 4.53157 20.1306 4.52826 20.1287 4.5263C20.1268 4.52436 20.1261 4.52452 20.1273 4.52494L20.1233 4.52357L19.2549 4.20202C18.9982 4.10899 19.0044 3.75178 19.253 3.65745L19.2539 3.657L20.1217 3.3359C20.126 3.33411 20.1295 3.33194 20.1314 3.32999C20.1334 3.32809 20.1332 3.3274 20.1328 3.32862L20.1342 3.32452L20.4557 2.45522ZM20.7161 2.53897C20.7146 2.53996 20.7119 2.54206 20.7097 2.5483L20.7092 2.54921L20.389 3.41396C20.3603 3.50023 20.292 3.55992 20.2191 3.58827L20.217 3.58896L19.3486 3.91005L19.3488 3.91028C19.3421 3.91284 19.3396 3.91586 19.3381 3.91802C19.3363 3.92087 19.3347 3.92513 19.3347 3.93031C19.3347 3.93548 19.3362 3.93941 19.3377 3.94168C19.3382 3.94245 19.339 3.94352 19.3404 3.94464L19.347 3.94806L19.3479 3.94828L20.2127 4.26847C20.2134 4.2687 20.2143 4.26891 20.215 4.26915L20.217 4.27006H20.2168C20.2902 4.29584 20.3439 4.35035 20.3749 4.41161L20.387 4.43869L20.3877 4.44074L20.709 5.3089L20.7129 5.31618C20.7143 5.31791 20.7156 5.31888 20.7167 5.3196C20.7196 5.32146 20.7239 5.323 20.729 5.32301C20.7342 5.32301 20.7381 5.32153 20.7404 5.32005C20.7419 5.31906 20.7445 5.31696 20.7468 5.31072L20.747 5.30981L21.0688 4.44074C21.0983 4.35673 21.1657 4.29864 21.2374 4.27074L21.2395 4.26983L22.1085 3.94828C22.1146 3.94581 22.117 3.94305 22.1183 3.941C22.1202 3.93815 22.1217 3.93387 22.1217 3.92871C22.1217 3.92356 22.1203 3.91961 22.1188 3.91733C22.1178 3.91583 22.1157 3.91322 22.1094 3.91096L22.1085 3.91051L21.2436 3.59032C21.2427 3.59004 21.2419 3.5897 21.2411 3.58941L21.2395 3.58896V3.58873C21.1555 3.55917 21.0974 3.49203 21.0695 3.42033L21.0686 3.41828V3.41805L20.747 2.54921H20.7468C20.7443 2.54324 20.7418 2.54076 20.7397 2.53942C20.7369 2.53756 20.7326 2.53602 20.7274 2.53601C20.7223 2.53601 20.7183 2.53749 20.7161 2.53897Z" fill="white"/>
<path d="M19.0976 10.5289C19.1785 10.55 19.227 10.6328 19.206 10.7137C19.1782 10.8201 19.1593 10.9044 19.1475 10.9615C19.1416 10.99 19.1374 11.0118 19.1347 11.0261C19.1334 11.0333 19.1324 11.0386 19.1318 11.0421C19.1315 11.0438 19.1312 11.0452 19.1311 11.0459C19.131 11.0462 19.1311 11.0465 19.1311 11.0466C19.1176 11.1292 19.0398 11.1852 18.9572 11.1718C18.8747 11.1583 18.8186 11.0805 18.8321 10.9979V10.9977L18.8323 10.9972C18.8324 10.9969 18.8324 10.9963 18.8325 10.9956C18.8327 10.9944 18.833 10.9926 18.8334 10.9904C18.8342 10.9859 18.8353 10.9795 18.8368 10.9713C18.8399 10.9547 18.8445 10.9307 18.851 10.8998C18.8638 10.8381 18.8837 10.7489 18.9129 10.6372C18.934 10.5563 19.0167 10.5078 19.0976 10.5289ZM19.4183 9.26637C19.4544 9.19094 19.5449 9.15924 19.6204 9.19537C19.6958 9.23149 19.7277 9.32178 19.6916 9.39722C19.5811 9.62801 19.4908 9.84691 19.4174 10.0453C19.3884 10.1238 19.3012 10.1637 19.2228 10.1348C19.1443 10.1057 19.1041 10.0186 19.1331 9.94019C19.2094 9.7339 19.3034 9.50636 19.4183 9.26637ZM20.1724 8.01635C20.2226 7.94939 20.3176 7.9357 20.3845 7.98585C20.4515 8.036 20.4652 8.13099 20.415 8.19794C20.2696 8.39202 20.1396 8.58735 20.0238 8.77983C19.9807 8.85141 19.8877 8.87456 19.8161 8.83149C19.7444 8.78836 19.7213 8.69517 19.7644 8.62349C19.8851 8.42294 20.0205 8.21913 20.1724 8.01635ZM21.1728 6.94633C21.2364 6.89207 21.332 6.89978 21.3863 6.9634C21.4406 7.02704 21.4331 7.12256 21.3694 7.17685C21.1871 7.33241 21.019 7.4946 20.864 7.66066C20.8069 7.7218 20.711 7.72523 20.6499 7.66817C20.5887 7.6111 20.5855 7.51519 20.6426 7.45403C20.805 7.27999 20.9813 7.10969 21.1728 6.94633ZM22.3894 6.13255C22.4638 6.09444 22.5552 6.12386 22.5933 6.19832C22.6314 6.27279 22.602 6.36411 22.5275 6.40222C22.3139 6.51153 22.1134 6.63013 21.9251 6.75608C21.8556 6.80261 21.7614 6.78396 21.7149 6.71444C21.6684 6.64494 21.687 6.55092 21.7565 6.5044C21.9543 6.37201 22.1651 6.24735 22.3894 6.13255ZM23.7589 5.61484C23.8398 5.59387 23.9224 5.64248 23.9434 5.72339C23.9645 5.80435 23.9158 5.88713 23.8349 5.90817C23.6006 5.96906 23.3778 6.04002 23.1661 6.11981C23.0878 6.14931 23.0003 6.10979 22.9708 6.03151C22.9414 5.95325 22.9811 5.86598 23.0593 5.83649C23.2812 5.75289 23.5143 5.67841 23.7589 5.61484ZM28.7904 5.73841C28.9081 5.76671 29.0272 5.79653 29.1476 5.8283C29.2285 5.84964 29.2768 5.93266 29.2555 6.01354C29.2342 6.0944 29.1511 6.14274 29.0703 6.1214C28.952 6.0902 28.8351 6.06065 28.7196 6.03288C28.6382 6.01333 28.5881 5.93148 28.6076 5.85014C28.6272 5.76882 28.709 5.71886 28.7904 5.73841ZM27.3708 5.46852C27.6026 5.50014 27.8404 5.53908 28.0844 5.58571C28.1666 5.60141 28.2205 5.68082 28.2048 5.76299C28.1891 5.84514 28.1097 5.89907 28.0276 5.88337C27.7887 5.83771 27.5561 5.79955 27.3298 5.76868C27.247 5.75734 27.1891 5.68108 27.2004 5.59823C27.2117 5.51536 27.2879 5.45723 27.3708 5.46852ZM25.1957 5.38409C25.2791 5.37822 25.3516 5.44107 25.3575 5.5245C25.3634 5.60791 25.3005 5.68035 25.2171 5.6863C24.975 5.70343 24.7424 5.73021 24.5192 5.76572C24.4366 5.77886 24.3589 5.72249 24.3458 5.63987C24.3327 5.55728 24.389 5.4796 24.4716 5.46647C24.7037 5.42955 24.9451 5.40183 25.1957 5.38409ZM25.9237 5.36133C26.1583 5.36294 26.4002 5.37299 26.6499 5.39183C26.7333 5.39812 26.7959 5.47089 26.7896 5.55431C26.7833 5.63768 26.7105 5.7001 26.6271 5.69381C26.3841 5.67547 26.1489 5.66601 25.9214 5.66445C25.8378 5.66382 25.7704 5.59537 25.771 5.51175C25.7716 5.42815 25.8401 5.36076 25.9237 5.36133Z" fill="white"/>
</svg>
