<svg width="45" height="43" viewBox="0 0 45 43" fill="none" xmlns="http://www.w3.org/2000/svg">
<path d="M44.4607 10.5023C45.3321 9.44305 45.0761 8.40021 44.2024 7.45602C43.2065 6.37794 41.8396 5.56293 40.4749 6.57994L35.1668 11.7965V9.30213C35.1668 9.12128 34.6454 8.49181 34.4856 8.49181H20.917L20.2264 8.49651H20.1466L15.226 8.48241L14.7821 7.55231C15.1602 6.9346 16.0739 6.46015 15.4749 5.67802C15.2659 5.40557 13.657 3.89532 13.4221 3.84365C12.7645 3.69333 12.4357 4.47076 11.9307 4.72443L11.0804 4.46842C10.9043 3.95169 11.2566 2.7186 10.5167 2.60352L7.50566 2.627C6.92552 2.80551 7.16039 3.91881 7.0453 4.40265L6.1152 4.7808C5.36831 4.30166 5.0982 3.36451 4.13991 4.12081C3.86981 4.33219 2.72127 5.45724 2.55686 5.7109C2.40184 5.94813 2.35017 6.1877 2.45351 6.4578C2.57095 6.76783 3.32255 7.37381 3.28967 7.60164C3.27792 7.69559 2.8575 8.55288 2.78234 8.59046C1.93679 8.75018 1.00669 8.2217 0.900997 9.42896C0.846976 10.0279 0.846976 11.167 0.900997 11.766C1.00904 12.992 1.97437 12.4307 2.74946 12.5739C2.99138 12.6186 3.19337 13.45 3.28967 13.6919C2.86454 14.3848 1.95558 14.817 2.61793 15.6837C2.79408 15.9162 4.25735 17.2644 4.48518 17.3794C5.13343 17.7036 5.6572 16.8768 6.1293 16.5339L6.93021 16.7547L6.91847 17.9408C0.243352 19.9513 -2.20169 28.0169 2.26561 33.4589C5.87093 37.8558 12.8373 38.1776 16.7738 34.0461C16.9781 33.83 17.3845 33.1559 17.6475 33.1066L28.905 33.116L29.0648 33.3344L21.8283 38.4547C19.8459 40.7001 22.338 43.8873 24.992 42.3959L32.0993 36.8082C37.8584 40.0612 44.7285 35.1688 43.2418 28.6229C42.422 25.0152 38.8449 22.5138 35.1668 22.9366V19.7305L44.4607 10.5023ZM42.4432 6.88292C42.8589 7.05673 43.8783 7.99858 44.1155 8.38377C44.5195 9.03437 44.3973 9.54639 43.944 10.1124C43.8595 10.2158 43.2817 10.8147 43.1995 10.7583L40.2189 7.81068C40.8014 7.03324 41.4074 6.4484 42.4432 6.88292ZM39.7327 8.17003L42.873 11.1811C42.5888 11.308 42.2435 11.8529 42.0298 11.9609C41.9546 12.0008 41.9241 11.9914 41.8677 11.9304L38.9248 8.978L39.7327 8.17003ZM38.4456 9.46889C38.5137 9.45714 39.364 10.2839 39.4438 10.4013C39.4838 10.4577 39.5378 10.4882 39.4767 10.5658L33.2526 16.7805L27.2633 22.7722C26.6385 22.8591 25.9856 22.8379 25.4172 22.549L38.4456 9.46889ZM24.4095 25.1655L25.1635 23.0681C25.8024 23.4275 26.4835 23.4087 27.1998 23.3899L27.4911 24.6183L28.1065 25.6564L25.8376 26.4667L24.4095 25.1655ZM25.1917 26.758L23.7026 27.2747L24.2216 25.7856L25.1917 26.758ZM34.5185 9.07195V11.9304H7.63953V9.0696H34.5185V9.07195ZM6.92552 20.6371V21.6729C3.58561 23.4603 2.53102 27.6763 4.71066 30.8213C6.09641 32.8201 8.59782 33.9334 11.0194 33.3462C11.1697 33.3086 11.5901 33.1043 11.623 33.1043H13.7909C13.9271 33.2241 13.1591 33.6774 13.0816 33.722C9.1028 36.0003 3.86746 33.4801 2.73536 29.1678C1.81231 25.6517 3.56682 21.8068 6.99128 20.5409C7.02182 20.5643 6.92552 20.6231 6.92552 20.6371ZM6.99128 22.4175V32.1342C3.79935 30.1167 3.18162 25.6141 6.08232 23.0329C6.16922 22.9554 6.93257 22.3517 6.99128 22.4175ZM6.92552 12.4753C6.92082 12.7008 7.07819 12.9521 6.92552 13.2198C5.41293 11.9186 5.37065 9.56049 6.89498 8.2358C8.15626 7.14129 10.458 7.13189 11.5244 8.49181H7.73583C7.50331 8.49181 6.9631 9.12362 6.9537 9.39608C7.06879 10.4201 6.9537 11.4606 6.92552 12.4753ZM6.85976 16.1088C6.16218 15.679 6.0377 15.8081 5.47165 16.2661C5.22738 16.4634 4.97606 16.9355 4.62375 16.7218C4.44995 16.4376 2.90682 15.2585 3.00547 15.0331C3.19102 14.7418 3.98255 14.0137 3.98255 13.706C3.98255 13.5792 3.47287 12.3367 3.37892 12.2028C3.33194 12.1371 3.20746 11.9891 3.137 11.9891H1.61502L1.57744 9.2669L3.23565 9.10953C3.31081 9.07195 3.96611 7.72377 3.97785 7.59459C3.99194 7.46541 3.91443 7.3057 3.84632 7.2C3.67486 6.93225 2.92796 6.34036 3.07123 6.03268L4.70596 4.48486C5.05592 4.39326 5.78638 5.66393 6.27962 5.41966C6.54502 5.17304 7.53619 5.07204 7.62544 4.75496C7.72879 4.38386 7.63719 3.7685 7.7053 3.40914C7.72409 3.30814 7.77107 3.23063 7.87206 3.1954L10.3594 3.24472C10.411 3.29875 10.4017 4.40031 10.4228 4.57646C10.4815 5.08614 10.9513 5.065 11.3482 5.20592C11.8579 5.38443 11.8132 5.624 12.3605 5.21532C12.5742 5.05796 12.9806 4.51539 13.192 4.48486L13.3352 4.506L15.071 6.19239C15.0827 6.33801 14.1643 7.14129 14.115 7.42783C14.0586 7.759 14.4344 8.16064 14.5049 8.49181H12.3981C8.33946 3.62992 1.9227 10.1829 6.99128 14.0959V16.0383L6.85976 16.1088ZM8.21028 36.1929C5.49748 35.7208 3.13935 34.0579 1.79822 31.6598C-1.02497 26.61 1.49523 20.4023 6.89498 18.6008C7.0547 18.6125 7.00773 19.6789 6.91143 19.8127C6.8621 19.8785 5.68069 20.4258 5.44111 20.5784C1.36605 23.1808 0.635589 28.8648 3.81813 32.4889C6.6836 35.7466 11.8367 36.1788 14.9911 33.1043H16.6423C14.7257 35.6456 11.3083 36.7331 8.21028 36.1929ZM7.93078 32.4584C7.90964 32.4584 7.63953 32.1859 7.63953 32.1671V30.0603H28.4306C28.3977 30.8753 28.5551 31.6762 28.7547 32.4584H7.93078ZM28.494 29.4778H7.63953V12.5082H34.4528L24.7078 22.3564L22.8594 27.8901C22.9275 28.1296 23.1436 28.2494 23.3808 28.1531L28.8346 26.0463C30.42 24.4163 32.0195 22.7698 33.6448 21.1868C33.9079 20.9307 34.2531 20.6794 34.5185 20.4093V23C31.3853 23.5989 28.8346 26.2835 28.494 29.4778ZM24.5857 41.8604C22.6503 42.8985 20.8747 40.6766 22.2135 38.9691L28.0736 34.7907L30.3707 37.3484L24.5857 41.8604ZM30.8498 36.9867L28.5598 34.5628C28.5269 34.4384 29.3161 33.8958 29.3959 33.9498C29.9056 34.8752 30.6384 35.7889 31.538 36.3455C31.6343 36.4841 30.9437 36.8599 30.8498 36.9867ZM35.9536 23.512C39.7351 23.512 42.8025 26.5771 42.8025 30.3586C42.8025 34.1401 39.7351 37.2075 35.9536 37.2075C32.1721 37.2075 29.1047 34.1424 29.1047 30.3586C29.1047 26.5748 32.1698 23.512 35.9536 23.512ZM33.1163 20.8227C31.7094 22.2202 30.3401 23.6482 28.9121 25.0058C28.8205 25.0951 28.7735 25.2548 28.6561 25.3323C28.5269 25.3581 28.5762 25.3041 28.5457 25.2501C28.1206 24.5196 27.8364 23.9371 27.7471 23.0681L39.9253 10.8265L41.4849 12.379V12.5082C38.7275 15.3149 35.909 18.0465 33.1163 20.8227Z" fill="white"/>
<path d="M38.8919 0.00716144L35.6178 0.556766L35.4487 0.782243C35.3923 1.00772 36.3365 1.90729 36.5902 2.01533C35.9278 2.61661 35.2208 3.17796 34.5115 3.72522C34.0559 4.07518 33.0318 4.66941 32.703 5.02407C32.5809 5.15325 32.5034 5.25425 32.6349 5.42101C32.8204 5.66058 33.2855 5.25425 33.464 5.13681C34.6877 4.34294 35.8174 3.32359 37.0129 2.48274C37.4803 2.68473 38.4879 4.62244 38.8144 3.55846C39.1268 2.5485 39.1667 1.32246 39.4368 0.289013C39.4415 -0.0398105 39.1362 -0.00458226 38.8919 0.00716144ZM38.34 2.98536L36.3976 1.07584L38.7933 0.655416L38.34 2.98536Z" fill="white"/>
<path d="M44.3699 21.0165C44.1092 20.892 43.8861 20.6289 43.771 20.3659C43.7193 20.2461 43.6043 19.5932 43.4563 19.929C43.2613 20.3823 43.2801 20.7159 42.7517 20.986C42.6366 21.0423 42.1386 21.1128 42.2349 21.2584C42.249 21.2796 42.6107 21.3594 42.7 21.3993C42.9208 21.5003 43.1509 21.7211 43.2684 21.9325C43.3858 22.1415 43.3811 22.3764 43.5385 22.5455C43.6724 22.3999 43.67 22.1885 43.7593 21.9936C43.8744 21.7399 44.0317 21.5778 44.2783 21.4487C44.4827 21.343 44.7011 21.3265 44.8796 21.2044C44.7387 21.087 44.5461 21.0987 44.3699 21.0165ZM43.7781 21.4604L43.5408 21.8104C43.3999 21.552 43.2167 21.3171 42.9349 21.2044C43.2003 21.0917 43.4046 20.8591 43.5244 20.5984C43.7053 20.8215 43.8556 21.087 44.1468 21.1856L43.7781 21.4604Z" fill="white"/>
<path d="M33.0413 3.52014C33.2216 3.52014 33.3678 3.37397 33.3678 3.19367C33.3678 3.01336 33.2216 2.86719 33.0413 2.86719C32.861 2.86719 32.7148 3.01336 32.7148 3.19367C32.7148 3.37397 32.861 3.52014 33.0413 3.52014Z" fill="white"/>
<path d="M31.5187 4.59394C31.6951 4.59394 31.8381 4.45093 31.8381 4.27451C31.8381 4.09809 31.6951 3.95508 31.5187 3.95508C31.3422 3.95508 31.1992 4.09809 31.1992 4.27451C31.1992 4.45093 31.3422 4.59394 31.5187 4.59394Z" fill="white"/>
<path d="M34.4835 2.44741C34.6534 2.44741 34.7912 2.30965 34.7912 2.13972C34.7912 1.96979 34.6534 1.83203 34.4835 1.83203C34.3135 1.83203 34.1758 1.96979 34.1758 2.13972C34.1758 2.30965 34.3135 2.44741 34.4835 2.44741Z" fill="white"/>
<path d="M9.9668 14.252V23.3909H20.8556V14.252H9.9668ZM19.8151 14.8391L15.3877 18.4609L10.9415 14.8391H19.8151ZM10.4882 15.1633L14.9579 18.7568L10.4882 22.4819V15.1633ZM11.0073 22.8061L15.39 19.189L19.8151 22.8061H11.0073ZM20.3341 22.4819L15.8645 18.7592L20.3341 15.1633V22.4819Z" fill="white"/>
<path d="M11.1456 27.7502C11.3285 27.7502 11.4768 27.602 11.4768 27.4191C11.4768 27.2362 11.3285 27.0879 11.1456 27.0879C10.9627 27.0879 10.8145 27.2362 10.8145 27.4191C10.8145 27.602 10.9627 27.7502 11.1456 27.7502Z" fill="white"/>
<path d="M32.0635 11C32.3229 11 32.5332 10.7897 32.5332 10.5303C32.5332 10.2709 32.3229 10.0605 32.0635 10.0605C31.8041 10.0605 31.5938 10.2709 31.5938 10.5303C31.5938 10.7897 31.8041 11 32.0635 11Z" fill="white"/>
<path d="M29.9229 11C30.1823 11 30.3926 10.7897 30.3926 10.5303C30.3926 10.2709 30.1823 10.0605 29.9229 10.0605C29.6634 10.0605 29.4531 10.2709 29.4531 10.5303C29.4531 10.7897 29.6634 11 29.9229 11Z" fill="white"/>
<path d="M27.7803 11C28.0397 11 28.25 10.7897 28.25 10.5303C28.25 10.2709 28.0397 10.0605 27.7803 10.0605C27.5209 10.0605 27.3105 10.2709 27.3105 10.5303C27.3105 10.7897 27.5209 11 27.7803 11Z" fill="white"/>
<path d="M26.7235 31.4334C26.8481 31.4334 26.949 31.3324 26.949 31.2079C26.949 31.0834 26.8481 30.9824 26.7235 30.9824C26.599 30.9824 26.498 31.0834 26.498 31.2079C26.498 31.3324 26.599 31.4334 26.7235 31.4334Z" fill="white"/>
<path d="M35.9543 24.4746C32.7036 24.4746 30.0684 27.1099 30.0684 30.3582C30.0684 33.6065 32.7036 36.2418 35.9543 36.2418C39.205 36.2418 41.8379 33.6089 41.8379 30.3582C41.8379 27.1075 39.2026 24.4746 35.9543 24.4746ZM35.952 35.6006C33.0583 35.6006 30.7119 33.2542 30.7119 30.3606C30.7119 27.4669 33.0583 25.1205 35.952 25.1205C38.8456 25.1205 41.192 27.4669 41.192 30.3606C41.192 33.2542 38.8456 35.6006 35.952 35.6006Z" fill="white"/>
<path d="M28.4093 37.0644C28.6347 37.0104 28.9753 37.3439 28.8109 37.5976C28.4985 38.0791 27.9348 37.1818 28.4093 37.0644Z" fill="white"/>
<path d="M27.8268 36.0902C28.0969 36.0197 28.2707 36.5693 27.9982 36.6586C27.6671 36.7666 27.4251 36.1959 27.8268 36.0902Z" fill="white"/>
<path d="M38.5168 28.2612C38.8081 28.1719 39.0382 28.3293 38.9631 28.637C38.8832 28.9681 37.4481 30.2529 37.1099 30.6122C36.6519 31.0961 36.2197 31.6293 35.7523 32.106C35.5433 32.3198 35.0008 32.9798 34.7119 32.8882C34.5592 32.8412 33.2885 31.5494 33.0912 31.3286C32.8047 31.0068 32.1893 30.4572 32.9151 30.267L34.8082 32.1366L38.5145 28.2635L38.5168 28.2612Z" fill="white"/>
<path d="M19.0488 3.85907C19.1401 3.60932 19.4805 3.60752 19.588 3.83521L19.5977 3.85815L19.5979 3.85907L19.9215 4.73365C19.9233 4.7381 19.9257 4.7415 19.9277 4.74352L19.9291 4.74489L19.9332 4.74627L20.8094 5.07037H20.8092C21.0672 5.16449 21.0608 5.52425 20.8103 5.61925L20.8094 5.61948L19.9346 5.94312C19.9302 5.94492 19.927 5.94736 19.925 5.94931C19.923 5.95121 19.9232 5.95189 19.9236 5.95069L19.9222 5.95481L19.5981 6.82986C19.5044 7.08864 19.1443 7.08261 19.0492 6.83192L19.0488 6.831L18.7251 5.95619C18.7233 5.95186 18.7211 5.94853 18.7192 5.94656C18.7173 5.94461 18.7166 5.94476 18.7178 5.94518L18.7137 5.9438L17.8384 5.61971C17.5797 5.52594 17.5859 5.1659 17.8366 5.07083L17.8375 5.07037L18.7121 4.74673C18.7165 4.74492 18.7199 4.74273 18.7219 4.74076C18.7239 4.73885 18.7237 4.73815 18.7233 4.73939L18.7247 4.73526L19.0488 3.85907ZM19.3112 3.94348C19.3097 3.94448 19.307 3.94659 19.3048 3.95288L19.3043 3.9538L18.9816 4.8254C18.9526 4.91234 18.8837 4.97252 18.8102 5.0011L18.8082 5.00178L17.9329 5.32542L17.9331 5.32565C17.9263 5.32824 17.9238 5.33128 17.9223 5.33345C17.9205 5.33633 17.9189 5.34063 17.9189 5.34584C17.9189 5.35105 17.9204 5.35502 17.9219 5.35731C17.9224 5.35808 17.9232 5.35915 17.9246 5.36029L17.9313 5.36373L17.9322 5.36396L18.8038 5.68668C18.8045 5.68692 18.8054 5.68713 18.8061 5.68737L18.8082 5.68829H18.8079C18.882 5.71426 18.9361 5.76921 18.9674 5.83095L18.9795 5.85825L18.9802 5.86031L19.3041 6.73536L19.308 6.7427C19.3094 6.74444 19.3108 6.74542 19.3119 6.74614C19.3147 6.74801 19.319 6.74957 19.3243 6.74958C19.3295 6.74958 19.3334 6.74809 19.3357 6.7466C19.3372 6.7456 19.3399 6.74348 19.3421 6.73719L19.3424 6.73628L19.6667 5.86031C19.6965 5.77562 19.7644 5.71708 19.8367 5.68898L19.8387 5.68806L20.7147 5.36396C20.7208 5.36146 20.7232 5.35868 20.7246 5.35662C20.7264 5.35375 20.728 5.34943 20.728 5.34423C20.728 5.33904 20.7265 5.33506 20.725 5.33276C20.724 5.33125 20.7219 5.32862 20.7156 5.32634L20.7147 5.32588L19.8429 5.00316C19.8422 5.00293 19.8415 5.00271 19.8408 5.00247L19.8387 5.00178V5.00156C19.7541 4.97176 19.6955 4.90409 19.6674 4.83182L19.6665 4.82976V4.82953L19.3424 3.9538H19.3421C19.3397 3.94778 19.3371 3.94528 19.335 3.94393C19.3322 3.94206 19.3278 3.94051 19.3226 3.94049C19.3174 3.94049 19.3135 3.94198 19.3112 3.94348Z" fill="white"/>
<path d="M21.4414 1.72235C21.5326 1.4726 21.873 1.4708 21.9806 1.69849L21.9902 1.72143L21.9905 1.72235L22.3141 2.59693C22.3159 2.60138 22.3183 2.60478 22.3203 2.6068L22.3217 2.60817L22.3258 2.60955L23.202 2.93365H23.2018C23.4598 3.02777 23.4534 3.38753 23.2029 3.48253L23.202 3.48276L22.3272 3.8064C22.3228 3.8082 22.3195 3.81064 22.3175 3.81259C22.3156 3.81449 22.3158 3.81517 22.3162 3.81397L22.3148 3.8181L21.9907 4.69314C21.897 4.95192 21.5369 4.94589 21.4418 4.6952L21.4414 4.69429L21.1177 3.81947C21.1159 3.81514 21.1137 3.81181 21.1118 3.80984C21.1098 3.80789 21.1091 3.80804 21.1104 3.80846L21.1063 3.80709L20.231 3.48299C19.9723 3.38922 19.9785 3.02918 20.2291 2.93411L20.2301 2.93365L21.1046 2.61001C21.1091 2.6082 21.1125 2.60601 21.1145 2.60404C21.1164 2.60214 21.1163 2.60145 21.1159 2.60267L21.1173 2.59854L21.4414 1.72235ZM21.7038 1.80676C21.7022 1.80776 21.6996 1.80987 21.6973 1.81616L21.6969 1.81708L21.3742 2.68868C21.3452 2.77563 21.2763 2.8358 21.2028 2.86438L21.2008 2.86507L20.3255 3.18871L20.3257 3.18894C20.3189 3.19152 20.3163 3.19456 20.3149 3.19673C20.313 3.19961 20.3115 3.20391 20.3115 3.20912C20.3115 3.21433 20.313 3.2183 20.3145 3.22059C20.315 3.22136 20.3158 3.22243 20.3172 3.22357L20.3239 3.22701L20.3248 3.22724L21.1964 3.54996C21.1971 3.5502 21.198 3.55041 21.1987 3.55065L21.2008 3.55157H21.2005C21.2746 3.57755 21.3287 3.63249 21.3599 3.69424L21.3721 3.72153L21.3728 3.7236L21.6966 4.59864L21.7005 4.60598C21.7019 4.60772 21.7033 4.6087 21.7044 4.60942C21.7073 4.61129 21.7116 4.61285 21.7168 4.61286C21.722 4.61286 21.726 4.61137 21.7283 4.60988C21.7298 4.60888 21.7324 4.60676 21.7347 4.60047L21.735 4.59956L22.0593 3.7236C22.0891 3.6389 22.157 3.58037 22.2292 3.55226L22.2313 3.55134L23.1073 3.22724C23.1133 3.22475 23.1158 3.22196 23.1171 3.2199C23.119 3.21703 23.1206 3.21272 23.1206 3.20751C23.1206 3.20233 23.1191 3.19834 23.1176 3.19605C23.1166 3.19453 23.1145 3.1919 23.1082 3.18962L23.1073 3.18916L22.2354 2.86644C22.2347 2.86619 22.2339 2.86601 22.2331 2.86575L22.2313 2.86507V2.86484C22.1467 2.83505 22.0881 2.76739 22.06 2.6951L22.0591 2.69304V2.69281L21.735 1.81708H21.7347C21.7322 1.81106 21.7297 1.80856 21.7276 1.80722C21.7247 1.80534 21.7204 1.80379 21.7152 1.80377C21.71 1.80377 21.706 1.80526 21.7038 1.80676Z" fill="white"/>
<path d="M40.8229 16.7483C40.9596 16.3782 41.486 16.3782 41.6227 16.7483L42.0947 18.0236L42.1009 18.0332C42.1037 18.036 42.1079 18.039 42.1138 18.0413L43.3868 18.5124H43.3865C43.7568 18.6491 43.7568 19.1755 43.3865 19.3122L43.3863 19.312L42.1112 19.7842C42.1074 19.7857 42.1044 19.7878 42.1018 19.7904C42.0991 19.7932 42.0961 19.7974 42.0938 19.8033L41.6227 21.0763C41.4859 21.4463 40.9597 21.4462 40.8229 21.0763L40.3508 19.8008C40.3494 19.7969 40.3473 19.794 40.3446 19.7914C40.3419 19.7886 40.3378 19.7856 40.332 19.7833L39.059 19.312V19.3122C38.6888 19.1756 38.6886 18.6491 39.0588 18.5124L40.3341 18.0403L40.3437 18.0342C40.3465 18.0314 40.3495 18.0272 40.3517 18.0213L40.8229 16.7483ZM41.2227 16.8676C41.2147 16.8676 41.2085 16.87 41.2048 16.8724C41.2035 16.8733 41.2018 16.8745 41.2002 16.8765L41.1951 16.8859L40.7231 18.1615L40.7222 18.1637C40.6796 18.2745 40.5922 18.3681 40.4719 18.4126L39.1964 18.8847C39.1877 18.8879 39.1846 18.8917 39.1829 18.8943C39.1805 18.898 39.1781 18.9042 39.1781 18.9122C39.1781 18.9202 39.1804 18.9266 39.1829 18.9303C39.1846 18.9329 39.1877 18.9365 39.1964 18.9397V18.9399L40.4719 19.412L40.4742 19.4129C40.585 19.4555 40.6785 19.5426 40.7231 19.6629V19.6631L41.1951 20.9384V20.9387C41.1983 20.9473 41.2022 20.9503 41.2048 20.952C41.2085 20.9544 41.2147 20.9568 41.2227 20.9568C41.2307 20.9568 41.237 20.9544 41.2408 20.952C41.2434 20.9503 41.247 20.9472 41.2502 20.9387L41.2504 20.9384L41.7225 19.6631L41.7234 19.6606C41.766 19.5499 41.8532 19.4565 41.9734 19.412H41.9736L43.2489 18.9399L43.2491 18.9397C43.2577 18.9365 43.2607 18.9329 43.2624 18.9303C43.2649 18.9266 43.2673 18.9202 43.2673 18.9122C43.2672 18.9042 43.2649 18.898 43.2624 18.8943C43.2607 18.8917 43.2578 18.8879 43.2491 18.8847H43.2489L41.9736 18.4126L41.9711 18.4117C41.8603 18.3691 41.767 18.2817 41.7225 18.1615L41.2504 16.8859H41.2502C41.247 16.8773 41.2434 16.8741 41.2408 16.8724C41.237 16.87 41.2307 16.8676 41.2227 16.8676Z" fill="white"/>
<path d="M21.4828 6.97687C21.5391 6.9142 21.6354 6.90899 21.6982 6.96517C21.761 7.02145 21.7664 7.11799 21.7101 7.18078C21.6426 7.25614 21.591 7.31694 21.5567 7.35854C21.5395 7.37932 21.5266 7.39538 21.5181 7.40602C21.514 7.41129 21.5107 7.41516 21.5087 7.41772C21.5077 7.419 21.5071 7.42013 21.5067 7.4207C21.5065 7.42093 21.5063 7.42105 21.5062 7.42116L21.4849 7.44364C21.4312 7.49012 21.3505 7.49413 21.292 7.44914C21.2252 7.39776 21.2127 7.30196 21.264 7.23514V7.23491H21.2642L21.2645 7.23445C21.2647 7.2342 21.2651 7.23396 21.2654 7.23354C21.2661 7.23263 21.2671 7.23126 21.2684 7.22964C21.2709 7.2264 21.2746 7.22163 21.2794 7.21564C21.2889 7.20362 21.303 7.18624 21.3213 7.16404C21.3581 7.11952 21.4123 7.05551 21.4828 6.97687ZM22.4542 6.05435C22.5197 6.00121 22.616 6.01115 22.6691 6.0766C22.7223 6.14206 22.7121 6.23838 22.6466 6.29152C22.4656 6.43849 22.3034 6.58293 22.162 6.717C22.1008 6.77501 22.0042 6.77244 21.9462 6.71126C21.8882 6.65008 21.8907 6.55342 21.9519 6.49542C22.0983 6.35655 22.2664 6.20679 22.4542 6.05435ZM23.5639 5.29972C23.6376 5.25883 23.7306 5.2854 23.7715 5.35913C23.8123 5.43285 23.7855 5.52582 23.7118 5.56671C23.5189 5.67375 23.3359 5.78795 23.1641 5.90526C23.0945 5.9528 22.9995 5.93497 22.9519 5.86535C22.9044 5.79572 22.9222 5.70073 22.9918 5.65318C23.1708 5.53102 23.3619 5.41179 23.5639 5.29972ZM32.093 5.43207C32.119 5.43327 32.1385 5.43414 32.1512 5.43459C32.1575 5.43481 32.1622 5.43496 32.1652 5.43505H32.1696C32.2538 5.43712 32.3204 5.50704 32.3185 5.59125C32.3164 5.67552 32.2465 5.74232 32.1623 5.74034H32.1604C32.1594 5.74032 32.1581 5.74016 32.1563 5.74011C32.1527 5.74001 32.1474 5.7399 32.1405 5.73965C32.1266 5.73917 32.1059 5.73838 32.0788 5.73713C32.0245 5.73462 31.9439 5.73024 31.8375 5.72291C31.7534 5.71711 31.6899 5.64417 31.6957 5.56006C31.7016 5.47597 31.7745 5.41251 31.8586 5.41831C31.9627 5.42548 32.041 5.42967 32.093 5.43207ZM30.5989 5.29032C30.8349 5.32043 31.0452 5.34428 31.229 5.36326C31.3128 5.37195 31.3736 5.44687 31.365 5.5307C31.3563 5.61457 31.2814 5.6756 31.1975 5.66694C31.0113 5.64772 30.7988 5.6235 30.5603 5.59309C30.4767 5.58242 30.4176 5.50603 30.4282 5.42244C30.4389 5.33882 30.5153 5.27969 30.5989 5.29032ZM29.3424 5.10499C29.564 5.14168 29.7731 5.17436 29.9695 5.20339C30.0529 5.21572 30.1105 5.29338 30.0982 5.37679C30.0858 5.46014 30.0083 5.51774 29.925 5.50547C29.7268 5.47618 29.5158 5.44314 29.2924 5.40615C29.2093 5.39233 29.1529 5.31383 29.1667 5.23068C29.1805 5.1475 29.2592 5.09122 29.3424 5.10499ZM28.0923 4.87814C28.3088 4.92072 28.5171 4.96016 28.7171 4.9965C28.8001 5.01157 28.8551 5.09087 28.8401 5.1738C28.825 5.25676 28.7455 5.31181 28.6625 5.29674C28.4611 5.26014 28.2513 5.22056 28.0334 5.1777C27.9507 5.16142 27.8968 5.08124 27.913 4.99856C27.9292 4.91583 28.0096 4.86187 28.0923 4.87814ZM24.8057 4.7763C24.8866 4.75293 24.9712 4.79955 24.9947 4.88044C25.0182 4.96142 24.9715 5.0462 24.8906 5.06967C24.6827 5.12989 24.4816 5.20266 24.288 5.28481C24.2104 5.31776 24.1207 5.28146 24.0878 5.20385C24.0549 5.12624 24.0911 5.03677 24.1687 5.00384C24.3726 4.9173 24.5853 4.84016 24.8057 4.7763ZM26.823 4.62423C26.9337 4.64001 27.0454 4.6601 27.1579 4.68455C27.2631 4.70743 27.3668 4.72957 27.4689 4.75107C27.5514 4.76847 27.6042 4.84955 27.5868 4.93204C27.5694 5.01452 27.4883 5.06732 27.4058 5.04994C27.3031 5.02831 27.1988 5.00597 27.093 4.98296C26.9877 4.96008 26.8833 4.94128 26.7799 4.92654C26.6964 4.91462 26.6384 4.83729 26.6503 4.75382C26.6622 4.67041 26.7396 4.61234 26.823 4.62423ZM26.1443 4.57813C26.2286 4.57766 26.2973 4.64565 26.2977 4.72997C26.2982 4.81421 26.2304 4.8829 26.1461 4.88342C25.93 4.88461 25.7184 4.90181 25.5124 4.93273C25.429 4.94523 25.3513 4.88789 25.3388 4.80451C25.3262 4.72114 25.3838 4.64339 25.4672 4.63088C25.687 4.59791 25.9129 4.57941 26.1443 4.57813Z" fill="white"/>
<path d="M29.205 15.8105H22.0859V16.3038H29.205V15.8105Z" fill="white"/>
<path d="M27.286 17.6387H22.0859V18.1319H27.286V17.6387Z" fill="white"/>
<path d="M25.7735 19.4785H22.0859V19.9718H25.7735V19.4785Z" fill="white"/>
<path d="M24.228 21.3184H22.0859V21.8116H24.228V21.3184Z" fill="white"/>
<path d="M19.4304 25.293H12.4922V25.7792H19.4304V25.293Z" fill="white"/>
<path d="M11.2348 25.9365C11.4541 25.9365 11.6318 25.7587 11.6318 25.5395C11.6318 25.3203 11.4541 25.1426 11.2348 25.1426C11.0156 25.1426 10.8379 25.3203 10.8379 25.5395C10.8379 25.7587 11.0156 25.9365 11.2348 25.9365Z" fill="white"/>
<path d="M21.0604 27.1758H12.4922V27.662H21.0604V27.1758Z" fill="white"/>
<path d="M11.2348 27.8154C11.4541 27.8154 11.6318 27.6376 11.6318 27.4184C11.6318 27.1992 11.4541 27.0215 11.2348 27.0215C11.0156 27.0215 10.8379 27.1992 10.8379 27.4184C10.8379 27.6376 11.0156 27.8154 11.2348 27.8154Z" fill="white"/>
<path d="M13.2737 10.3047H9.66602V10.8261H13.2737V10.3047Z" fill="white"/>
<path d="M34.2816 8.49219H35.1812V11.9307H34.7326V8.7482H33.9199L34.2816 8.49219Z" fill="white"/>
<path d="M6.92578 13.2195V8.47266H11.6186L11.9262 8.78034H7.34856V13.5647L6.92578 13.2195Z" fill="white"/>
</svg>
